/* XPM */
static char *_8a402ca83f74cf8aa90cbd5fccb056f7Q4DfpJqf5hoqqps[] = {
/* columns rows colors chars-per-pixel */
"64 64 24 1 ",
"  c None",
". c black",
"X c #040A08",
"o c #0B1A15",
"O c #172808",
"+ c #10231D",
"@ c #163329",
"# c #1A3B30",
"$ c #4F1507",
"% c #1C4034",
"& c #214A3C",
"* c #214E3F",
"= c #275949",
"- c #285949",
"; c #2D6653",
": c gray39",
"> c gray45",
", c #B23F24",
"< c #808080",
"1 c gray55",
"2 c gray60",
"3 c #AAAAAA",
"4 c gray70",
"5 c gray72",
/* pixels */
"                                                                ",
"                                                                ",
"                                                                ",
"                                                                ",
"                                                                ",
"                                                                ",
"                                                                ",
"                                                                ",
"                                                                ",
"                                                                ",
"                                                                ",
"                                                                ",
"                                                                ",
"                                                                ",
"                                                                ",
"            ..:....:....:....:....:....:....:....:..            ",
"           .55:4333:3333:3233:2211:1<<<:<<>>:>>>>:>>.           ",
"           .55:4333:3333:3332:2211:1<<<:<<>>:>>>>:>>.           ",
"          .555:4333:3333:3333:2211:1<<<:<<>>:>>>>:>>>.          ",
"          .555:4333:3333:3323:2211:1<<<:<<>>:>>>>:>>>.          ",
"          .555:4333:3333:3333:2211:1<<<:<<>>:>>>>:>>>.          ",
"          ............................................          ",
"         .;;;;--************ooooooo%%%%%%%%#########@@.         ",
"         .;;;;--%%%%%%****oo*******oo%%%%%%#########@@.         ",
"        .;;;;;--%--$-%***o*******%*%%o%%%%%#@@@@@###@@@.        ",
"        .;;;;;--%$--$%**o*********%%%%o%%%%#@%%%@###@@@.        ",
"       .;;;;;;--%-$--%*o********%**%%%%o%%%#@%*%@###@@@@.       ",
"       .;;;;;;--%%%%%%o***********%%%%%%o%%#@%%%@###@@@@.       ",
"       .;;;;;;--******o*********%**%%%%%o%%#@@@@@###@@@@.       ",
"       .;;;;;;---****o************%%%%%%%o%#########@@@@.       ",
"   .............XXXXXXXoooooooooooo%%%%%%o%#########@@@@.       ",
"  .===========&&%&%%%%%%%%%+%%+++++oo%%%%o%********#@@@@.       ",
"  .===========&&%%&%%%%%%%%%+%%+++++o%%%%o%*%%%%%%*#@@@@.       ",
"  .===========&&&%&%%%%%%%%%%%+++++oo%%%%o%*%*,*,%*#@@@@.       ",
"   ...............XXXXXoooooooooooo%%%%%%o%*%**,*%*#@@@@.       ",
"       .;;;;;;---****o**********%**%%%%%%o%*%****%*#@@@@.       ",
"       .;;;;;;--**-***o***********%%%%%%o%%*%**O*%*#@@@@.       ",
"       .;;;;;;--******o**********%*%%%%%o%%*%*O*O%*#@@@@.       ",
"       .;;;;;;---*-*-**o**********%%%%%o%%%*%%%%%%*#@@@@.       ",
"        .;;;;;--********o*******%**%%%o%%%%********#@@@.        ",
"        .;;;;;---********o********%%%o%%%%%#########@@@.        ",
"         .;;;;--**-*******oo*******oo%%%%%%#########@@.         ",
"         .;;;;--****-*******ooooooo%%%%%%%%#########@@.         ",
"          ............................................          ",
"          .555:4333:3333:3333:2211:1<<<:<<<:>>>>:>>>>.          ",
"          .555:4333:3333:3323:2211:1<<<:<<<:>>>>:>>>>.          ",
"          .555:4333:3333:3333:2211:1<<<:<<<:>>>>:>>>>.          ",
"           .55:4333:3333:3323:2211:1<<<:<<<:>>>>:>>>.           ",
"           .55:4333:3333:3333:2211:1<<<:<<<:>>>>:>>>.           ",
"            ..:....:....:....:....:....:...:....:...            ",
"                                                                ",
"                                                                ",
"                                                                ",
"                                                                ",
"                                                                ",
"                                                                ",
"                                                                ",
"                                                                ",
"                                                                ",
"                                                                ",
"                                                                ",
"                                                                ",
"                                                                ",
"                                                                "
};
