/* XPM */
static char *_412ae16b5704398a1f0ddc4e609ab85wwbwW6NhGM8chSj7[] = {
/* columns rows colors chars-per-pixel */
"64 64 24 1 ",
"  c None",
". c black",
"X c #040A08",
"o c #0B1A15",
"O c #172808",
"+ c #10231D",
"@ c #163329",
"# c #1A3B30",
"$ c #4F1507",
"% c #1C4034",
"& c #214A3C",
"* c #214E3F",
"= c #275949",
"- c #285949",
"; c #2D6653",
": c gray39",
"> c gray45",
", c #B23F24",
"< c #808080",
"1 c gray55",
"2 c gray60",
"3 c #AAAAAA",
"4 c gray70",
"5 c gray72",
/* pixels */
"                                                                ",
"                                                                ",
"                                                                ",
"                                                                ",
"                                                                ",
"                                                                ",
"                                                                ",
"                                                                ",
"                                                                ",
"                                                                ",
"                                                                ",
"                                                                ",
"                                                                ",
"                                                                ",
"            ...:....:...:....:....:....:....:....:..            ",
"           .>>>:>>>>:<<<:<<<1:1122:3333:3333:3334:55.           ",
"           .>>>:>>>>:<<<:<<<1:1122:3233:3333:3334:55.           ",
"          .>>>>:>>>>:<<<:<<<1:1122:3333:3333:3334:555.          ",
"          .>>>>:>>>>:<<<:<<<1:1122:3233:3333:3334:555.          ",
"          .>>>>:>>>>:<<<:<<<1:1122:3333:3333:3334:555.          ",
"          ............................................          ",
"         .@@#########%%%%%%%%ooooooo*******-****--;;;;.         ",
"         .@@#########%%%%%%oo*******oo*******-**--;;;;.         ",
"        .@@@#########%%%%%o%%%********o********---;;;;;.        ",
"        .@@@#********%%%%o%%%**%*******o********--;;;;;.        ",
"       .@@@@#*%%%%%%*%%%o%%%%%**********o**-*-*---;;;;;;.       ",
"       .@@@@#*%O*O*%*%%o%%%%%*%**********o******--;;;;;;.       ",
"       .@@@@#*%*O**%*%%o%%%%%%***********o***-**--;;;;;;.       ",
"       .@@@@#*%****%*%o%%%%%%**%**********o****---;;;;;;.       ",
"       .@@@@#*%*,**%*%o%%%%%%ooooooooooooXXXXX...............   ",
"       .@@@@#*%,*,*%*%o%%%%oo+++++%%%%%%%%%%%&%&&&===========.  ",
"       .@@@@#*%%%%%%*%o%%%%o+++++%%+%%%%%%%%%&%%&&===========.  ",
"       .@@@@#********%o%%%%oo+++++%%+%%%%%%%%%&%&&===========.  ",
"       .@@@@#########%o%%%%%%ooooooooooooXXXXXXX.............   ",
"       .@@@@#########%o%%%%%%%************o****---;;;;;;.       ",
"       .@@@@###@@@@@#%%o%%%%%**%*********o******--;;;;;;.       ",
"       .@@@@###@%%%@#%%o%%%%%%***********o%%%%%%--;;;;;;.       ",
"       .@@@@###@%*%@#%%%o%%%%**%********o*%--$-%--;;;;;;.       ",
"        .@@@###@%%%@#%%%%o%%%%*********o**%$--$%--;;;;;.        ",
"        .@@@###@@@@@#%%%%%o%%*%*******o***%-$--%--;;;;;.        ",
"         .@@#########%%%%%%oo*******oo****%%%%%%--;;;;.         ",
"         .@@#########%%%%%%%%ooooooo************--;;;;.         ",
"          ............................................          ",
"          .>>>:>>>>:>><<:<<<1:1122:3333:3333:3334:555.          ",
"          .>>>:>>>>:>><<:<<<1:1122:3233:3333:3334:555.          ",
"          .>>>:>>>>:>><<:<<<1:1122:3333:3333:3334:555.          ",
"           .>>:>>>>:>><<:<<<1:1122:2333:3333:3334:55.           ",
"           .>>:>>>>:>><<:<<<1:1122:3323:3333:3334:55.           ",
"            ..:....:....:....:....:....:....:....:..            ",
"                                                                ",
"                                                                ",
"                                                                ",
"                                                                ",
"                                                                ",
"                                                                ",
"                                                                ",
"                                                                ",
"                                                                ",
"                                                                ",
"                                                                ",
"                                                                ",
"                                                                ",
"                                                                ",
"                                                                "
};
