/* XPM */
static char *_4a8b36d9fe844b7fe84b7d7e968e422Nz8hY3cznG2p6y9k[] = {
/* columns rows colors chars-per-pixel */
"64 64 17 1 ",
"  c None",
". c black",
"X c #010101",
"o c #020202",
"O c gray1",
"+ c #040404",
"@ c gray2",
"# c #060606",
"$ c #070707",
"% c gray3",
"& c #090909",
"* c gray4",
"= c #0B0B0B",
"- c #0C0C0C",
"; c gray5",
": c #0E0E0E",
"> c gray6",
/* pixels */
"                                                                ",
"                                                                ",
"                                                                ",
"                                                                ",
"                                                                ",
"                                                                ",
"          .................+;=+..===+.................          ",
"        ;.................+;=+....===.................+;        ",
"       ;==...............+==+......==+...............+===       ",
"       +===.............+=+=........===..............+==.       ",
"      ...=;  ..........+==+..........===...........  >+...      ",
"      ....    ........+==+............+==.........    ....      ",
"      ....     ......++=+..............===.......     ....      ",
"      .....     ....+===................=+=.....     .....      ",
"      ......     ..+==+..................===...     ......      ",
"      .......     ===+..   ..........   ..=+=.     .......      ",
"      ........     ;+..    ..........    ..=;     ........      ",
"      .........     ...    ..........    ...     .........      ",
"      .........=     ..    ..........    ..     +.........      ",
"      ........+=;     .    ..........    .     >=.........      ",
"      .......+===.         ..........         .==+........      ",
"      ......++=+...        ..........        ...===.......      ",
"      .....+===.....       ..........       .....===......      ",
"      ....+==+..           ..........           ..+==.....      ",
"      ...+==+..            ..........            ..==+....      ",
"      ..+==+...            .........+            ...===...      ",
"      .+==+....            =........=            ....=+=..      ",
"      +==+................===.....+===................===.      ",
"      ==+..................===...+==+..................;==      ",
"      ;+...................+=+=..+=+....................+;      ",
"      +......................======......................;      ",
"      .......................+=++=........................      ",
"      .......................+====........................      ",
"      =......................+=++==......................=      ",
"      =+...................+===..===....................==      ",
"      ===..................=+=...+=+=..................===      ",
"      +;=+...............+===.....+===................+==.      ",
"      .+=+=....            =........=            ....===..      ",
"      ..+==+...            .........+            ...=+=...      ",
"      ...+===..            ..........            ..===....      ",
"      ....===+..           ..........           ..+==.....      ",
"      .....+==+.....       ..........       .....===......      ",
"      ......+===...        ..........        ...===.......      ",
"      .......+=+=.         ..........         .==+........      ",
"      ........++;     .    ..........    .     >=.........      ",
"      .........=     ..    ..........    ..     ..........      ",
"      .........     ...    ..........    ...     .........      ",
"      ........     ;=..    ..........    ..=;     ........      ",
"      .......     ====..   ..........   ..+==+     .......      ",
"      ......     ..+=+=..................===...     ......      ",
"      .....     ....+==+................===.....     .....      ",
"      ....     ......+===..............==+.......     ....      ",
"      ....    ........+=+=............=+=.........    ....      ",
"      ...=;  ..........++=+..........+==...........  ;=...      ",
"       .;==.............+==+........===.............+;==.       ",
"       ;==...............====......===................==;       ",
"        =.................+;==....==++.................;        ",
"          .................+===..=;=..................          ",
"                                                                ",
"                                                                ",
"                                                                ",
"                                                                ",
"                                                                ",
"                                                                "
};
