/* XPM */
static char *ce64e2e283364b26b2fccdac89af2a387FMN3sfAHbfyCcgu[] = {
/* columns rows colors chars-per-pixel */
"64 64 2 1 ",
"  c None",
". c black",
/* pixels */
"  ....                                                    ....  ",
" ......                                                  ...... ",
"........                                                ........",
".........                                              .........",
"..........                                            ..........",
"...........                                          ...........",
" ...........                                        ........... ",
"  ...........                                      ...........  ",
"   ...........        ....            ....        ...........   ",
"    ...........      ......          ......      ...........    ",
"     ...........    ........        ........    ...........     ",
"      ...........  .........        .........  ...........      ",
"       .....................        .....................       ",
"        ....................        ....................        ",
"         ...................        ...................         ",
"          ..................        ..................          ",
"           .................        .................           ",
"            ................        ................            ",
"            ................        ................            ",
"           .................        .................           ",
"          ..................        ..................          ",
"         ...................        ...................         ",
"        ....................        ....................        ",
"        ....................        ....................        ",
"        ....................        ....................        ",
"        ....................        ....................        ",
"         ..................          ..................         ",
"          ................            ................          ",
"                                                                ",
"                                                                ",
"                                                                ",
"                                                                ",
"                                                                ",
"                                                                ",
"                                                                ",
"                                                                ",
"          ................            ................          ",
"         ..................          ..................         ",
"        ....................        ....................        ",
"        ....................        ....................        ",
"        ....................        ....................        ",
"        ....................        ....................        ",
"         ...................        ...................         ",
"          ..................        ..................          ",
"           .................        .................           ",
"            ................        ................            ",
"            ................        ................            ",
"           .................        .................           ",
"          ..................        ..................          ",
"         ...................        ...................         ",
"        ....................        ....................        ",
"       .....................        .....................       ",
"      ...........  .........        .........  ...........      ",
"     ...........    ........        ........    ...........     ",
"    ...........      ......          ......      ...........    ",
"   ...........        ....            ....        ...........   ",
"  ...........                                      ...........  ",
" ...........                                        ........... ",
"...........                                          ...........",
"..........                                            ..........",
".........                                              .........",
"........                                                ........",
" ......                                                  ...... ",
"  ....                                                    ....  "
};
