/* XPM */
static char *_d8fcdf016104aeb8655a4ed5891ffb6pURKBmcamUBqJPHu[] = {
/* columns rows colors chars-per-pixel */
"64 64 6 1 ",
"  c None",
". c #303F13",
"X c #3B4F14",
"o c #3C5115",
"O c #4C661A",
"+ c #6E8C33",
/* pixels */
"                                                                ",
"                                                                ",
"                                                                ",
"                                                                ",
"                                                                ",
"                                                                ",
"                                                                ",
"                                                                ",
"                ........                                        ",
"                ........                                        ",
"                ........                                        ",
"                ........                                        ",
"        oooooooooooooooooooooooooooooooooooooooooooo            ",
"        oooooooooooooooooooooooooooooooooooooooooooo            ",
"        oooooooooooooooooooooooooooooooooooooooooooo            ",
"        oooooooooooooooooooooooooooooooooooooooooooo            ",
"        oooo................................XXXXoooo            ",
"        oooo................................XXXXoooo            ",
"        oooo................................XXXXoooo            ",
"        oooo................................XXXXoooo            ",
"        oooo....OOOOOOOOOOOO                ++++oooo            ",
"        oooo....OOOOOOOOOOOO                ++++oooo            ",
"        oooo....OOOOOOOOOOOO                ++++oooo            ",
"        oooo....OOOOOOOOOOOO                ++++oooo            ",
"        oooo....OOOOOOOOOOOOOOOOOOOOOOOOOOOO++++oooo            ",
"        oooo....OOOOOOOOOOOOOOOOOOOOOOOOOOOO++++oooo            ",
"        oooo....OOOOOOOOOOOOOOOOOOOOOOOOOOOO++++oooo            ",
"        oooo....OOOOOOOOOOOOOOOOOOOOOOOOOOOO++++oooo            ",
"        oooo....OOOOXXXXOOOOOOOOOOOOXXXXOOOO++++oooo            ",
"        oooo....OOOOXXXXOOOOOOOOOOOOXXXXOOOO++++oooo            ",
"        oooo....OOOOXXXXOOOOOOOOOOOOXXXXOOOO++++oooo            ",
"        oooo....OOOOXXXXOOOOOOOOOOOOXXXXOOOO++++oooo            ",
"        oooo....OOOOOOOOXXXXOOOOXXXXOOOOOOOO++++oooo            ",
"        oooo....OOOOOOOOXXXXOOOOXXXXOOOOOOOO++++oooo            ",
"        oooo....OOOOOOOOXXXXOOOOXXXXOOOOOOOO++++oooo            ",
"        oooo....OOOOOOOOXXXXOOOOXXXXOOOOOOOO++++oooo            ",
"        oooo....OOOOOOOOOOOOXXXXOOOOOOOOOOOO++++oooo            ",
"        oooo....OOOOOOOOOOOOXXXXOOOOOOOOOOOO++++oooo            ",
"        oooo....OOOOOOOOOOOOXXXXOOOOOOOOOOOO++++oooo            ",
"        oooo....OOOOOOOOOOOOXXXXOOOOOOOOOOOO++++oooo            ",
"        oooo....OOOOOOOOXXXXOOOOXXXXOOOOOOOO++++oooo            ",
"        oooo....OOOOOOOOXXXXOOOOXXXXOOOOOOOO++++oooo            ",
"        oooo....OOOOOOOOXXXXOOOOXXXXOOOOOOOO++++oooo            ",
"        oooo....OOOOOOOOXXXXOOOOXXXXOOOOOOOO++++oooo            ",
"        oooo....OOOOXXXXOOOOOOOOOOOOXXXXOOOO++++oooo            ",
"        oooo....OOOOXXXXOOOOOOOOOOOOXXXXOOOO++++oooo            ",
"        oooo....OOOOXXXXOOOOOOOOOOOOXXXXOOOO++++oooo            ",
"        oooo....OOOOXXXXOOOOOOOOOOOOXXXXOOOO++++oooo            ",
"        ooooXXXX++++++++++++++++++++++++++++++++oooo            ",
"        ooooXXXX++++++++++++++++++++++++++++++++oooo            ",
"        ooooXXXX++++++++++++++++++++++++++++++++oooo            ",
"        ooooXXXX++++++++++++++++++++++++++++++++oooo            ",
"        oooooooooooooooooooooooooooooooooooooooooooo            ",
"        oooooooooooooooooooooooooooooooooooooooooooo            ",
"        oooooooooooooooooooooooooooooooooooooooooooo            ",
"        oooooooooooooooooooooooooooooooooooooooooooo            ",
"                                                                ",
"                                                                ",
"                                                                ",
"                                                                ",
"                                                                ",
"                                                                ",
"                                                                ",
"                                                                "
};
