/* XPM */
static char *a489d6b28dff4a50ce4da66441144deboAmmZop1RtqTPZUB[] = {
/* columns rows colors chars-per-pixel */
"64 64 127 2 ",
"   c #253E1D",
".  c #2A3D1E",
"X  c #36331F",
"o  c #3D301F",
"O  c #2B3C20",
"+  c #353721",
"@  c #3C3522",
"#  c #313A21",
"$  c #3C3923",
"%  c #432E1F",
"&  c #433221",
"*  c #4C3424",
"=  c #1E4417",
"-  c #1F4318",
";  c #214617",
":  c #23421A",
">  c #2B441C",
",  c #264A19",
"<  c #2B4C1A",
"1  c #33441D",
"2  c #38451E",
"3  c #324C1D",
"4  c #3B4C1C",
"5  c #2D5219",
"6  c #2F5819",
"7  c #33541B",
"8  c #3B541D",
"9  c #355A1A",
"0  c #3B5D1C",
"q  c #3D621B",
"w  c #3E681A",
"e  c #2D4220",
"r  c #314320",
"t  c #334B20",
"y  c #394D20",
"u  c #375020",
"i  c #3E5920",
"p  c #464C1F",
"a  c #44551D",
"s  c #425D1D",
"d  c #4B5C1E",
"f  c #515D1F",
"g  c #42651D",
"h  c #4A641E",
"j  c #446B1C",
"k  c #49681E",
"l  c #4A6A1E",
"z  c #486C1C",
"x  c #486E1D",
"c  c #4D6D1F",
"v  c #52651F",
"b  c #546D1F",
"n  c #47701B",
"m  c #47711B",
"M  c #48711B",
"N  c #49721B",
"B  c #4B721B",
"V  c #4A741B",
"C  c #4E771B",
"Z  c #4B731C",
"A  c #4C731D",
"S  c #4F721E",
"D  c #4C751C",
"F  c #4D751C",
"G  c #4C761C",
"H  c #4F781C",
"J  c #50731C",
"K  c #50761D",
"L  c #55741E",
"P  c #58741F",
"I  c #5A751E",
"U  c #50781C",
"Y  c #517A1C",
"T  c #537B1D",
"R  c #54791D",
"E  c #547B1E",
"W  c #537C1C",
"Q  c #527D1C",
"!  c #537E1C",
"~  c #567D1D",
"^  c #557E1D",
"/  c #5A781E",
"(  c #5B7D1E",
")  c #597E1E",
"_  c #627A1F",
"`  c #4D4623",
"'  c #4B4A22",
"]  c #415621",
"[  c #495621",
"{  c #455B20",
"}  c #4C5A21",
"|  c #545C21",
" . c #5B5E23",
".. c #476220",
"X. c #4C6520",
"o. c #4E6920",
"O. c #566321",
"+. c #536B20",
"@. c #526C20",
"#. c #5A6922",
"$. c #567420",
"%. c #5B7320",
"&. c #5C7920",
"*. c #54811C",
"=. c #56811C",
"-. c #57831C",
";. c #59831D",
":. c #5B831D",
">. c #5C871D",
",. c #5D891D",
"<. c #61851F",
"1. c #63891E",
"2. c #618A1E",
"3. c #638B1E",
"4. c #648B1F",
"5. c #668B1F",
"6. c #698E1F",
"7. c #66901E",
"8. c #6A911F",
"9. c #6C941F",
"0. c #6E951F",
"q. c #5F8120",
"w. c #608320",
"e. c #688721",
"r. c #658820",
"t. c #6A8D20",
"y. c #719820",
/* pixels */
"j H j ; 0 O ..9 *.j T   o.Q q ..j O 9.j 3 g j : Q z 8 : e.< < 9 < > Z Z   N .   q : 9 : 9 0 < x K A : , N q , q V q Z =.0 =.0 5 ",
"q j j ; q O O 0 *.Z q q *.D O g >.> T x , 9 j D Q O < D >.D 7 Z 0 O x A < g X . ^ 8 j : < 5 < 1.0 g 0 5 Z < , : N : q V 9 >.5 : ",
"q D   < $.5 g q 9 0 q x *.0 O Q z V 9 z >.y g x j . q r.,.A q Q 9 0 0 g 9 ) : b m g z   7 , > j q 5 x g q : q > q   j q ; Z   Q ",
"D D O q $.5 w &.x ^ , g &.< O x q , < q *.J ;.j : . , w.Q g j 1.. < j j K Z > L g # g g O > q - q : < 9 E :.j 8 7 : g 7 : < g N ",
"*.Q : *.K : < 9.T D : *.T 9   : 9 : V w g D g 9 g O , Q 9 8 D D 3   j Z A 9 . h j p T T + : x s , j 9 g A ) 9 L , O g g 7 7 2.q ",
"H < - D q : j r.D j > g x D g . q   r.: 7 ;.5 , > %.x g x X.*.7 s >.j 9 x 5 . z E d g q O x q x j j ^ ) J K q D Q O 9 9 q : ,.: ",
"-., > o.D e >.j 9 q Z 7 0 g ^ O Z , *.: j ^ O : ^ $.j 7 q O >., L >.0 q Z , | 0 T j < 5 g j : > j j ;.L :.q Z Z *.# <   z : 7 1.",
"V q j 5 Q O H 5 T 0 Z q 7 ) j 3 Q   5   9 q 0 K >.g A : q < D > 4.D j 7 j q 4 7 ,.x 0 , c : , > j 7 Z g ^ 7 j g ^ j   . g 7 g ^ ",
", 7 g A q O 5 9 *., z 9 j q > g Q 8 9 < ;.7 9 Z > : E : ) g j e ,.N N   : z 0 < j   : ; q g   0 6 9 0 8 9 : x y j z g s t 0 Q Z ",
"  E ^ g : +.*.9 D x . : ;.5 O X.7 , 7 , *.: e 3   z ~ 0 x *.K y D j : s 8 q g 0 0 q > j N ) 3 j     q z 7 : g K 9 9 9 , 0 < D   ",
"  D x 7 O $.D : > x .   H q Q O.  9 j > H < 7.5 A ^ q A 7 >.L 4 9 0 q c Z 0 H g , <   j 9 j d ) < q 5 5 5 , Q *., , 9 : 9 : q Q ",
"g Q q   ] O 5 : q 7 8 < , . j j   9 *.e D   ;.5 g K j . 7 D *.d 5 j q h =.j > 5 >   > 5 : 7 & ^ > 7 9 - q : r.0   j <   , , q x ",
"9 >.A D ) { : - : j O   9 A A A . g s q x   1.x < Z j x N q b ,.g *.9 z h 1.0 =.8 : > < q x ' 6.  < < Z q j *.g 9 0 : 7 j g j Z ",
"O g 6.g ;.K >   : j $ > q >.g |   x 0 j x j >.q   7   j q ~ 9 ~ ) 9 . 9 0 2.N   . < 3 . , c h ^ D q Z ^ q ..A { < . j 8 g 5 H g ",
"# Q ^ : 5 +.> 5 ) 7 $ g > , O h V D 9 h 0 q j q   g s 7 7 j 5 Z L : < # = E 0   t g ..c : N ^ E Z > Z V Z 0 9 . O.0 0 o.: 7 0 q ",
"N j j   E A   j | 9 ^ D q D < y 0 3 V 7 Z j Z , 1 j : j x 9   9 j . ; & 9 K 9 > A D y 0 : 9 ;.K 9 . q ) s V < O a Q > # ..1 5 : ",
"j q , , 0 s . *.g 3 9 7 7 j   a 6 L *.1 7 j ^ 9 d E < < Z j : < j . 7 a < t., *.j { O.q 9 5 V j n Q , K < V , q # q._ g x 9 : D ",
"0 , Q 9 g g O j E i > 0 ; q : < , ;.j < 5 A g q < . K j 5 Z > : 0 ;.4.1 , t.  j V V -.: < V j 9 Q >.  *.> q > j $.V ;.E s E . q ",
"O : q : < s ' 9 ^ j , 8 :   q . : E g ; D 9   g > z Q =.7 q   , Q D 9.D , 3.&.6 9 q q.O > V G 5 z Q . q q 8 $ >.;.9 x g 9 A : : ",
"O : 7 : . 0 D q : 7 5 o.x $ 9 . g j > > 3 : . < q 3 Y ~ q j : 0 ^ D 1.>.: 3.z , 7 0 *.g Z z q , 7 >.. g : < . z 0 9 A 9 < T   0 ",
"3   A 0 O x 5 T < 9 9 T q @ ] . z z > q : x A 7 j ; ~ q j h > 7 7 >.j g 7 >.z : A j r.,.q n D V 0 j 4 Q < : . e q g Z ,   m > 5 ",
": 0 j x @ q q T q 9 , L < 3 @ g P 9 . <.7 K 9 s j . V j j >.  ; < q q 9 9 Z 0 - $.$.Q q G V $.q H 5 0   q 7   z > < D     j 7 q ",
"x q q 9 X > N j . 9 : ^ g 8 <.^ 0 < 7 E j > j , 0 X N R F z g N 3 N q 5 j q - V z u z z G q V 7   5 T g < > 8 q 1 : g   . E N ) ",
"K 0 3 9 .     q . 0 j D 3 h 8.8 A > 3 > < g 9 : 7 s j N 9 N 9 =.0 9 F : j 6 V j 8 : V 8 >.z j > D D g z o.> z g : 3 x y q ) j 9 ",
"K   s > > 7 7 6 . D > q < 8 z 4 7 ; q > 5 , N 9   g 0 j j g , . A <.Q j q q q Z 9 : q 5 ,.Z j 9 H >.j x P 3 : < 3 . g A 7 j q , ",
"z . Q g h < N q   z K 7 . & 0 -.: : : 0 :   N > g > 9 T q g g : , ~ V q N 5 a j :   T 5 Z , Q < x Y : a ^ ;.0 0 g . g x   > : : ",
"q j 0 3 T : 7 j O 7 D , 0 # q 3.  < 7 9 , ^ 6   A 7 Q ^ Z b F   < # q   D D =.0 : A N m *.  q & j m ; h 0 z 9 7 8.> < D J     2 ",
"j a q < ,.    q O 7 g x , j ^ H   z     O $., > 9 < T j q Y c j > 1 0 j j 0 ( < , *.j 6 z z Z . : , : K j 7 g 0 ) 8 7 x 9 : q d ",
"0 3 >.q 8 . . g j 8 ^ E : g Z Q j *.1 j   D 8 > <   Y 9 < j q N   : q g 9 9 ^ O > T 8 , , x N z g q > q >.E z > ;.x :   , , g 1 ",
"3 > 6.  X g 0 J < > 0 A J 7 J q j *.v K O j g : c 9 j F   Y 1 -.O : x A j N >.< 6 T $.H > j q 6 q 0 > x ;.9 q x >.>.0 c ; , j g ",
"< Z x < d h 3 c > q < 7 z @ 7 , D ^ 3 ^ @ 9 b > Y h 0 E 7 q < q . < q ..g >.Q > < T D ,.: j j D A g . 9 q 7 < 6 j T ..T < : g > ",
"3 Z j Z _ 0 5 s 7 8 c : 0 @ q , j D 9 D f , K D 5 . < j   7 g q O T Z 0 $ g j D e < O j : 5 g ;.x A   j O L j -   0 ^ ^     N g ",
"0 5 *.H e.5 5 8 T 7 1.: 6 : T   N 9 , 7 I   g T , P   &.: 8 *.5 O D >.x > q 6 Q > 7 7 , >   g ..D D D Z 8 y.-.5 3 < z 0 j Z Q g ",
"j ; Y N ) : 7 1 q   ;.  < : 4.. 0 < j 9 K N 8 ; x 4.0 x > O j   X.j Q D g j , D g , ;.: g g 0 0 N 0 Z q Q 8.< , a . - j g V 7 7 ",
"~   9 . 9 <.g + < f o.: 9 z 9 T Q Z 0 1.q g 3   ;.0 j O   I g 7 #.7 > *.9 T ; } J N 0 7 9 < O , D 3 j A ) =.. q # . : , O 6 : q ",
";.9 ; 3 9 L O O <   6 K < +., q 0 -., =.q F 0 9 3 b *.O e Z ;.Z  ., . x > :   s E N j . < 0 &.;.x 0 J J ,.: 7 j # q >   g 9 : T ",
"0 5   q H { > > > w ; T - c   >.J j -.Q Q j 5 g , 9 x . 3 q g Z * 5 O j   : < 1 g q j 9   b >.=.9 j ~ Y N g q Z o q . > 0 *.H ;.",
"; N   z E 9 g 7 j 0 b T 6 Y g ,.c g Q q *.-.5 < ^ , j <.. 5 O Z #.q   9 K 3 : < q > 7 D g A ^ Z q x Z x ^ 7 g N % Q . d   q D ;.",
". H . 0 g 9 j { j > j g q V > *.g q q 0 *.m z = h . x <.+.    j 3.Y . : j ) . > N   5 N V z q , q x < 9 D < j *.a ;.. h     j D ",
"&.j > 4 ;.D > ) j *.h 9 x : : 0 N g : 0 g j 0   5 5 T g *   7 z ,.s w.: c ;.. . g ; j g < s 7 , 0 ^ : 5 ;.X 7 H I Z . 4 7 . : A ",
") z > *.E ; :.7 j q . 9 ^ >.5 g q 0 ; >.9 7 ; . g : 0 5 H 3 6 Q ^ h w.: ~ N -.j A > 0 g 6 7 : : 6 ;.  9 Q g N q d T   8 J : 7 0 ",
"h g 7 E N g 4., : 9 3 q q D : 0 ; J   7 Y j ;   j 3 z : q O q >.^ >.&.g q 7 ,.7 s X 7 j   >.  > , Z g q Q q q < q 9 9 . z : 0 ..",
"c N > H 9 >.) < Z Q 3 7 : g K Q ; c   0 x )   . : > V     s 0 q g *.h x 9 5 Y   0 > . >.. =.. Y g T j T N Z q < j > q q 0 ^ K A ",
"7 *.< 9 7 z c < Q 0 7 < 7 x E <   s N j Z g . 3 g $ g *.i j 7 5 j j 8 x : 1 :.J Z 7 7 <.9 Z 3 N < D N q 9 D , : H ^ j 5 s Z < > ",
"> 5   , 7 4 8 - g A 0 z : , q 9   J q A 7 j . 7 a 3 z z D 9 < - 0 g . < g 0 c F 0 ,.7 >.q q 5 N : x j Z = q > h Y j ) H g 0 >.h ",
"D 7 ^ 7 ; z > 8 j g T 7 =.- , : > Z < E q j & h , D , *.g o.: > 5 j 3 x ^ : Y . q j : q j : j q j D T j 5     <.E 7 K 0 j 5 ^ 0 ",
"K T q > < q 6 *.x 3 T 0 j c :   g g < 0 g E , X.: q : T Z T , O : w 7 9 ,.8 q < < 0 , < N . g q g ;.0 q A > N j j q q < , j Z 0 ",
"N <.7 0 g D 7 Z j 0 0 z > .   j ^ 7 . g b q 3 E   q : 9 0 q g * q 7 q 9 =.>.q 8 3 K j : q X   7 g < s 7 h . z 9 7 7 , D   9 Z 0 ",
"m V > , < ,., , 7 . g t.= 3 < 1 0 < 0 j q <   T O 5   : q < x $ x > 0 ,.H V q D . ) ^ K 9 O j w >.*.x : ..;.D 5 O 7 9 8 : g T T ",
"m 9 8 : >.Z j 0 0 O @.>.3 g x . . 8   g < , < Z   5 y : Q 6 T z 0 3 x Q 9 z 6 1.z N j 3 q d 0 : Q 1.7 j : H : ; 0 *.D 7 e ,.T x ",
"q O q   ,.D ,.: j g d z 1 O g < g j < 7 K 8 : < 7 n q X 2.0 &.^ Z q *.9 Q j ^ ;.7 ;.0 O O w 9   N D 0 9 . D 5 , *.T g E T T >.A ",
"< ..;.e ;.q >.g z . g 9 < a D : s : 8 , j 9 7   j z e g H D . J >., >.7 Q < K q 7 j g   : 8 z . >.D 5 9 g q , > q ^ ] ) N q <.) ",
"$.V Z O , g D Z 9   Q , 8 &.9 q L   c : 0 > ;.3 j < : A 9 9 O 1.q 9 D : j t ^ x >.z V . > < 9 0 ;.7 9 , 4.9 . 0 < >.O s 7 7 g A ",
"$.m H +.< 0 T > 7 g x : j ;.> Q J . J 5 O.> <.a w 0 O z j g z H D K j : : 8 :.>.>.7 b . q : q . >.m < ; D j 3 9 ^ Q 4 j ; - 7 g ",
",.j >.L q 5 < j t ^ V 0 g g g Q j >.N ^ j O g 0 *.: 8 $.V q , j x q q 0 9 H : V N , g s E : >.2 j D 0 0 D x x ) 0 j 7 3 3 ; 5 0 ",
"j 9 ,.@.>.: < , o.>.o.< >.y D 5 q N > 5 E +   T n > q >.o.5 H -.: , g Q 0 q   0 0 7 0 :.0 g E L j : < q ;.g q ) q 5 < c g   , q ",
"0 j ; z >.z . ; >.T 0 0 : s 9 n 7 9 > ; D g . j j g z Q >.g *.z   > z ..j H u 0 7 q 3 c 7 0 j ; K : O 5 z > 5 N q q : b 1.  > 5 ",
"< g < ,.1.A 0 9 q.Q q : : *.: x 0 A , : g g h T w.T *.*.n q j 9 > O g > Q , < j 0 E > 3 , . s z q j j ; 0 : 7 j g 6 7 2 T > 0 Z ",
"g K : j 1.K j 0 j Q D     Q < : N ) j : z   a ^ T z o.z D Q z , : . ^ T z m 7 O A >.:   9 3 s g q :   : 3 .   7 9 [ . 0 Z H m x ",
"E g 7 5 8.Q 9 . 9 0 x *.> Z 7   Z ^ Q h s 0 ^ q T 7 7 D 0 Q T . g > Z *.j Q ^ o.K Q j 3 ; > > 8 E 0   X.> 0 7 : - $ c g 0 Z < H ",
"A q : ^ E Q 0 0 . h >.< O 9 : 9 q j ^ Q . , x 9 *.5 - =.g E g e j > *.q w >.9 0 x N :.A > 0 8 $ =.m O &.3 z z   , 8 x q   g < E ",
"h : : j Z q : Y @ <.T : > < q g < 9 0 N @ j x Q ^ T H q x K j i ..Z 9 q.>.9 { 7 ;.q :.s . 7 s ` j z O V h z s A g 7 9 j , ^ u t.",
"#.0 > 9 z 7 >.Q p ) >.  . q < < s 7 g 9 X g w ,.D g 5 Q g x x O.@.9 : 6.>.z Q : >., g g x j   N <.g } Q . 2 7 A T . ; *.: j X.>.",
"d >.D , q 7 D g , o.Z V 8 Z <   b T h q < : 7 Q w Q 9 j 1.3 *.d D : : V 9 n H : D : c q :.:.> D 6., E K 4.q 7 j < 1 : ;.: 7 q.Q "
};
