/* XPM */
static char *_f87672010764da1b7b41ed2d5e2cdccO7baJTXYhNRcVv3p[] = {
/* columns rows colors chars-per-pixel */
"64 64 249 2 ",
"   c None",
".  c #7F7F00",
"X  c #7F7F26",
"o  c #9D7D01",
"O  c #9D7D0D",
"+  c #9A7608",
"@  c #8D7D1B",
"#  c #817C1B",
"$  c #9B7A15",
"%  c #9C751E",
"&  c #977818",
"*  c #957006",
"=  c #B66D01",
"-  c #B86F09",
";  c #BB6E01",
":  c #A37602",
">  c #AC7503",
",  c #A57E00",
"<  c #AC7C02",
"1  c #A6760A",
"2  c #AB760A",
"3  c #A57B0B",
"4  c #AC7D0B",
"5  c #B37302",
"6  c #BC7301",
"7  c #B47B01",
"8  c #BA7C01",
"9  c #B3750A",
"0  c #BC750A",
"q  c #B47B0C",
"w  c #B97B0C",
"e  c #A37D11",
"r  c #A97B11",
"t  c #AB7C1A",
"y  c #AA7518",
"u  c #B57B12",
"i  c #B97812",
"p  c #AE6F01",
"a  c #9A7737",
"s  c #90752C",
"d  c #A57B23",
"f  c #AD7923",
"g  c #A87A2A",
"h  c #A67636",
"j  c #BA7E21",
"k  c #C57607",
"l  c #C37312",
"z  c #CE7109",
"x  c #7D8626",
"c  c #968405",
"v  c #9B8202",
"b  c #9A810D",
"n  c #978807",
"m  c #9B9300",
"M  c #9C811E",
"N  c #988415",
"B  c #969217",
"V  c #A48402",
"C  c #AB8301",
"Z  c #A48A01",
"A  c #A7840C",
"S  c #AA820A",
"D  c #AE8A00",
"F  c #B48200",
"G  c #B2830C",
"H  c #B78600",
"J  c #A78315",
"K  c #AB8611",
"L  c #A6851A",
"P  c #B48314",
"I  c #B5851B",
"U  c #8B822A",
"Y  c #9B8224",
"T  c #938438",
"R  c #859128",
"E  c #A68428",
"W  c #C08400",
"Q  c #FCA71E",
"!  c #F7B20A",
"~  c #FF9A2B",
"^  c #FB9D27",
"/  c #ED9A35",
"(  c #FE9634",
")  c #F59C35",
"_  c #FE9D34",
"`  c #FF943B",
"'  c #FE9C3C",
"]  c #F29E3C",
"[  c #FF8F3C",
"{  c #DEA93B",
"}  c #EFA92B",
"|  c #FFA324",
" . c #FCA22C",
".. c #FEAA2C",
"X. c #F5A728",
"o. c #EBA335",
"O. c #E1A53B",
"+. c #ECA53C",
"@. c #EDAA3C",
"#. c #E9AA3A",
"$. c #F5A434",
"%. c #FCA333",
"&. c #FEAB33",
"*. c #F5A33C",
"=. c #FDA33C",
"-. c #F3AA3E",
";. c #FDAA3D",
":. c #F5A834",
">. c #E6B53C",
",. c #FCB13B",
"<. c #F3D33A",
"1. c #FAE829",
"2. c #DA9F58",
"3. c #FF8F44",
"4. c #EC9C45",
"5. c #FF9645",
"6. c #FE9C44",
"7. c #FE9C4A",
"8. c #F89A4B",
"9. c #FE8C5C",
"0. c #FF9652",
"q. c #FF9A51",
"w. c #F29E5B",
"e. c #FA9B58",
"r. c #DDA952",
"t. c #D7AD56",
"y. c #ECAB45",
"u. c #E4A44C",
"i. c #EBAB4E",
"p. c #EAA549",
"a. c #F4A544",
"s. c #FEA343",
"d. c #F2AA45",
"f. c #FDAB43",
"g. c #F5A549",
"h. c #FDA34B",
"j. c #F2A949",
"k. c #FDAA4A",
"l. c #E5B347",
"z. c #F9B243",
"x. c #EBAC53",
"c. c #E9A458",
"v. c #F2A453",
"b. c #FDA353",
"n. c #F4AC52",
"m. c #FDAB56",
"M. c #F2A55B",
"N. c #F3AF59",
"B. c #FDA95C",
"V. c #FFA15B",
"C. c #E7B758",
"Z. c #F9B459",
"A. c #D49474",
"S. c #F1966B",
"D. c #D6A966",
"F. c #D4A576",
"G. c #CCA479",
"H. c #E6A662",
"J. c #E4A767",
"K. c #FBA461",
"L. c #FFA861",
"P. c #F3AB63",
"I. c #E8B26A",
"U. c #E7B275",
"Y. c #F3B072",
"T. c #DDDC5B",
"R. c #FDD34B",
"E. c #FEDA49",
"W. c #FFCB56",
"Q. c #FED35D",
"!. c #FDDC5E",
"~. c #FFD854",
"^. c #D0EC5F",
"/. c #EBEA57",
"(. c #F0E553",
"). c #FFE55E",
"_. c #FFE942",
"`. c #DAD372",
"'. c #FFCC64",
"]. c #FEC66B",
"[. c #FECC6C",
"{. c #F9CB66",
"}. c #EEDE6E",
"|. c #EED862",
" X c #FFD465",
".X c #FDDC64",
"XX c #F6D46D",
"oX c #FED46D",
"OX c #F2DB6D",
"+X c #FEDC6C",
"@X c #F5DA64",
"#X c #FFCC73",
"$X c #FFCD7E",
"%X c #FCC879",
"&X c #EDDD73",
"*X c #EDDB7A",
"=X c #E7D978",
"-X c #F5D571",
";X c #FDD473",
":X c #F3DB74",
">X c #FDDB74",
",X c #F4D57C",
"<X c #FDD47C",
"1X c #F5DC7B",
"2X c #FDDA7A",
"3X c #ECCE64",
"4X c #C9ED6F",
"5X c #E7E36A",
"6X c #FEE562",
"7X c #F2E565",
"8X c #EBE473",
"9X c #E8E578",
"0X c #F5E174",
"qX c #FBE176",
"wX c #FEE37A",
"eX c #F4E57B",
"rX c #E7F372",
"tX c #DDDE8A",
"yX c #CFC797",
"uX c #D4C39B",
"iX c #D4D08C",
"pX c #FFCC8C",
"aX c #F8C585",
"sX c #EEDD82",
"dX c #E8D589",
"fX c #F6D182",
"gX c #FDD582",
"hX c #F4DC83",
"jX c #FBDB83",
"kX c #F4D58F",
"lX c #FBD58D",
"zX c #F8DB8B",
"xX c #EDDA9C",
"cX c #EAD793",
"vX c #F5D394",
"bX c #FDD392",
"nX c #F7DA97",
"mX c #F3CE9B",
"MX c #DAE387",
"NX c #E8E886",
"BX c #FBE386",
"VX c #EAE899",
"CX c #F5E496",
"ZX c #F0F28A",
"AX c #DBD3A3",
"SX c #E9DCA7",
"DX c #F8DAA7",
"FX c #F1C3A4",
"GX c #F3E0A3",
/* pixels */
"                                                                                                                                ",
"                                                                                                                                ",
"                                                                                                                                ",
"                                                                                                                                ",
"                                                                                                                                ",
"                                                                                                                                ",
"            D.B.B.H.I.t.r.r.h g L a                                                         A.L.x.c.J.H.J.U.aXfXBXiX            ",
"            u.=.~ ( ,.} :.} 8 C v N                                                         w.%...&.%. .%.k.].+X!.hX            ",
"            P.~ ~ '  ...X...5 H m x                                                         4.! Q &.~ &.&.=.[.Q..XdX            ",
"            I.=.( ' ;.-.:.:.7 < v c                                                         >.! ) z./ %.) ] [.;X>XcX            ",
"            g 6 z k 2 2 5 w 7 C H <         s L C V v n N Y d g d d M L E L A Z n x         7X1..X'.9 w w i u 1 $ T             ",
"            @ F 8 < 3 4 4 2 C v 6 j         $ < H H F V V C 8 8 C , : o V C C C V N         NX/.0X>XJ 4 > 4 1 V c U             ",
"            N C 7 2 e J r 2 S v y h         M C 8 7 V v v Z C 7 H H F V C C 8 7 < g         AXMX&X=X& 3 : 9 4 V c U             ",
"            Y 4 k 0 y r y i 4 V g s         @ 4 7 9 4 b b V < 7 = 5 4 r e 4 r 9 f h         AXDXBX,Xd r w i P : v T             ",
"            t.&.^ 6.g.k.a.d.5 V w I @ x R B l.8.q.0.v.p.#.#.j.q.s.Z.].,XhXfX<X<X%XgXE E Y & jX;X;XgXx.j.o.$.Q. X6XdX            ",
"            I.| ^ ' 6.s.) ;.< F z 6 D n m C ^ q.9.9.0.'  .' 5.9.] Z.#XhXBX*X:X<X+XW.C V Z C E.E.;X#Xd.=. ._ Q.~.!.hX            ",
"            L.~  .s.s.6.` k.5 8 v C 5 7 9 2 y.d.=.' ' ;.-.y.d.s.5.k.'.8X9X9X-X;X].;X3 J N c >X;X;X;Xj.' 5.M.kXhX1XvX            ",
"            M.%. .@.d.f.s.a.< < Z < 7 6 9 i y.k.=.s._ ;.@.@.a.s.' s. X;X:X1X<X<X2X[.I + + L 3X>X2X>X{ %.=.N.<X0X+XfX            ",
"            f 6 8 S 1 9 - q , Z o < o.-.a.+.y.*.=.' z k 7 w 9 l 0 w y.i.x.C.-X-XXXoXoXoX>X>X:X0X<X-XK 7 6 2 O o < t             ",
"            % 8 , c O 4 9 3 A v V 7 ;.f.k.k.a.s.=.;.= > + 4 = 0 A 2 d.8.8.u.#X&XeX3XoX'.{.>X1XeXgX-Xc , < C v C 8 <             ",
"            y F V c b 4 9 3 Z v C > *.( ` 6.6.k.=.;.5 G A S 5 0 o : s.7.q.m.2XeX8X0X>X;X;X2X-X&X<X1Xc , < C v C 7 <             ",
"            f 6 8 S 1 9 - u < V , 7 s.h.6.h.6.s.*.-.< V v : 9 k b 4 a.h.b.B.].XXOX:X+XoX;X;X2X1X2X-XK 7 6 > O v < t             ",
"            M.%. .@.d.k.s.-.< < V q =.5.5.5.h.h.s.@.< V V S @.=.#.y.'.[.].Z.Z.x.l.C.XX>X>X1X<X<X2X>XO.%.s.N.gX0X+XfX            ",
"            L.~  .s.6.6.` k.> 8 v S *.6.7.5.h.' f.o.7 V v < -.=.=.f.'.>X>X#Xn.8.g.i.+XOX&XBX%XgX;X;Xj.' 5.M.kXhX1XvX            ",
"            L.~  .=.6.6.' k.= F c 3 a.6.7.7.5.6.=.d.7 V , > ;.s.6.s.oXOX0X;Xn.7.7.g.;X:X9X&XgXgX;X;Xd.' 5.M.kX1X1XvX            ",
"            M.%. .@.d.k.6.-.< < n V -.h.6.7.h.h.=.-.5 < < > ] ( ` s.'.}.8XXXn.7.0.h.;XOX9X*XgXgX2X>X{ _ s.N.gX0X+XfX            ",
"            f 6 8 S 3 9 9 u C Z c V -.s.5.h.s.h.=.=.0 7 G w ;.6.6.k.oX0X8X-Xi.8.5.h.#XoX:X*XhXjX<X-XK 7 6 : O v < t             ",
"            % 8 , c O 4 9 : A v v , *.h.h.7.g.6.6.) ; > > w *.s.6.k.;X0X:XXXi.8.7.h.[.;X1X:X1XhXgX:Xc V 7 C o C 8 <             ",
"            d 7 V c b r 9 3 A v V 7 *.s.h.s.a.s.k.s.l w 7 i +.h.] p.[.>X:X;Xn.8.6.h.oX;X:X:X1XjX<X:Xc < < C v C 7 <             ",
"            f 6 8 4 1 5 - q , Z < 5 =.s.s.g.j.6.' ( z 0 q P +.j.j.C.-X2X2X;Xn.h.h.g.oX+X0X1X,XgX<X-XK 8 6 > O v < t             ",
"            M.%.X.-.d.k.s.d.< < 8 6 =.s.s.g.j.s.h.k.) o.O.l..X;X;X{.wX1X;X#Xb.7.7.j.oX}.eX:X<X<X2X2X{ %.s.N.gX0X+XfX            ",
"            L.~ ~ s.s.6.` k.= F 6 k =.=.s.j.j.a.' h.' -.l.l. XoX2XoX1X:X;X%Xe.7.6.i.+X5X8X&X<X$X;X;Xd.' 5.M.kXhX1XvX            ",
"            B.^ %.h.s.=. .,.: S 9 9 *.' ' _ ~  .~ ^ ,.X.| } aXpX^.5X-X2X[.W.Q Q _ b.%X$XOX8X=XvX;X;Xj.' 5.e.lXhX2XbX            ",
"            v. .^ y.y.f.:.o.< , O I #.k.k.' =.) k.a.f./ #.y.$XpX5X1XpXpXaX].z.@.k.L.pXgX0XBXdXnX;X2XO._ s.B.gX>XoXfX            ",
"            f 6 8 r 1 6 6 8 < C O o < > = l b.m.g.v.L.P.M.x.i.u.l.y.K.S.Y.U.-X>X#X%X$X<X>X:X,XgX<X-XS 8 6 > O , 7 t             ",
"            & 8 , b $ 7 6 5 G , C C D 8 5 0 *.=.6.7.0.0.V.m.$.,...( 5.9.S.D.hXeXwX>X[.+X@X@X.X.X<X:Xc V < C V < 7 >             ",
"            $ H < b $ 0 6 5 G < C , < < 4 8 }  .%.' 5.5.5.' ^ Q | ~ 5.0.V.r.&XT.T.7X3X1XwX@X6XR.jX:Xc , < C o C 8 4             ",
"            f 6 H r 1 6 6 0 < S D C % a a d >.} ^ =.s.6.=.$.,.,.-.s.` 3.7.g.-X5XrX8XsXdXxXnX:X6X,X-XK 7 5 2 O V < t             ",
"            v. . .i.i.;.:.@.< V Z @         c o 7 l - = 0 u ].$X<X$Xq.5.` s.oX0X`.VX        nX{.1XqX{ $.=.N.fX0X+XfX            ",
"            B.~ %.g.s.=. .d.: A V %         B v : q 5 < C : gXbXMXzX8.5.( =.W.>XNXtX        SX2X-X;Xd.=.6.M.zXsX1XvX            ",
"            B.~ =.h.a.=._ o.4 , H y         n v q 9 > C V S ;XgX4X9Xx.5.%. ..XOX*XVX        GX|.>XoXy.=.5.M.nXsX1XvX            ",
"            v. .^ j.j.f.&.#.G S q y         # M d g E E M & BX>X4XZXD.P.M.u.<XnXVXiX        CX6X;X>Xy.;.) u.<X0X+XfX            ",
"            t k 5 e y 6 6 0 * : C &                         `.7XrX`.                        dX!.jX-X4 8 k G K v < t             ",
"            $ F C b O 5 6 w q G D s                         VX7X7XkX                        vXQ.$X-Xv < > < v C 8 :             ",
"            $ 8 , O $ w k 5 > + < E                         CXE.<.lX                        zX~.gX2XA 7 < < o < 8 <             ",
"            t 6 8 e r 0 k 5 P 3 > E                         lXR._.zX                        gXR.$X].q 8 k i J o < t             ",
"            v. .&.y.p.$.$.@. XQ.).kX                        bX[.<.fX                        J.*.u.Z./ _ ` 4.<XwX+XfX            ",
"            B.~ _ 6.k.=.=.@.+X.XXXSX                        FXpX).mX                        A.L.u.N.' 6.7.e.bX*X1XvX            ",
"            c.M.h.;.%.%.$.,.W. XdXSX                        xXOX-XxX                        F.I.| | | ^ %.k.[.gXpXDX            ",
"            F.U.J.H.H.H.J.I.%XpXVXyX                        xX7X+XxX                        G.U.v.v.v.c.c.I.aXvXDXuX            ",
"                                                            cX@X.XkX                                                            ",
"                                                            sX(.~.hX                                                            ",
"                                                            sX(.~.<X                                                            ",
"                                                            9X(.E.,X                                                            ",
"                                                            NX/.~.jX                                                            ",
"                                                            cX7X6XzX                                                            ",
"                                                            SX&X}.xX                                                            ",
"                                                            yXVXCXyX                                                            ",
"                                                                                                                                ",
"                                                                                                                                ",
"                                                                                                                                ",
"                                                                                                                                ",
"                                                                                                                                ",
"                                                                                                                                "
};
