/* XPM */
static char *ba68869a9c9c4899cea44e3d83b0a30bQzG1PahXo1ncHiuJ[] = {
/* columns rows colors chars-per-pixel */
"64 64 249 2 ",
"   c None",
".  c #7F7F00",
"X  c #7F7F26",
"o  c #9D7D01",
"O  c #9D7D0D",
"+  c #9A7608",
"@  c #8D7D1B",
"#  c #817C1B",
"$  c #9B7A15",
"%  c #9C751E",
"&  c #977818",
"*  c #957006",
"=  c #B66D01",
"-  c #B86F09",
";  c #BB6E01",
":  c #A37602",
">  c #AC7503",
",  c #A57E00",
"<  c #AC7C02",
"1  c #A6760A",
"2  c #AB760A",
"3  c #A57B0B",
"4  c #AC7D0B",
"5  c #B37302",
"6  c #BC7301",
"7  c #B47B01",
"8  c #BA7C01",
"9  c #B3750A",
"0  c #BC750A",
"q  c #B47B0C",
"w  c #B97B0C",
"e  c #A37D11",
"r  c #A97B11",
"t  c #AB7C1A",
"y  c #AA7518",
"u  c #B57B12",
"i  c #B97812",
"p  c #AE6F01",
"a  c #9A7737",
"s  c #90752C",
"d  c #A57B23",
"f  c #AD7923",
"g  c #A87A2A",
"h  c #A67636",
"j  c #BA7E21",
"k  c #C57607",
"l  c #C37312",
"z  c #CE7109",
"x  c #7D8626",
"c  c #968405",
"v  c #9B8202",
"b  c #9A810D",
"n  c #978807",
"m  c #9B9300",
"M  c #9C811E",
"N  c #988415",
"B  c #969217",
"V  c #A48402",
"C  c #AB8301",
"Z  c #A48A01",
"A  c #A7840C",
"S  c #AA820A",
"D  c #AE8A00",
"F  c #B48200",
"G  c #B2830C",
"H  c #B78600",
"J  c #A78315",
"K  c #AB8611",
"L  c #A6851A",
"P  c #B48314",
"I  c #B5851B",
"U  c #8B822A",
"Y  c #9B8224",
"T  c #938438",
"R  c #859128",
"E  c #A68428",
"W  c #C08400",
"Q  c #FCA71E",
"!  c #F7B20A",
"~  c #FF9A2B",
"^  c #FB9D27",
"/  c #ED9A35",
"(  c #FE9634",
")  c #F59C35",
"_  c #FE9D34",
"`  c #FF943B",
"'  c #FE9C3C",
"]  c #F29E3C",
"[  c #FF8F3C",
"{  c #DEA93B",
"}  c #EFA92B",
"|  c #FFA324",
" . c #FCA22C",
".. c #FEAA2C",
"X. c #F5A728",
"o. c #EBA335",
"O. c #E1A53B",
"+. c #ECA53C",
"@. c #EDAA3C",
"#. c #E9AA3A",
"$. c #F5A434",
"%. c #FCA333",
"&. c #FEAB33",
"*. c #F5A33C",
"=. c #FDA33C",
"-. c #F3AA3E",
";. c #FDAA3D",
":. c #F5A834",
">. c #E6B53C",
",. c #FCB13B",
"<. c #F3D33A",
"1. c #FAE829",
"2. c #DA9F58",
"3. c #FF8F44",
"4. c #EC9C45",
"5. c #FF9645",
"6. c #FE9C44",
"7. c #FE9C4A",
"8. c #F89A4B",
"9. c #FE8C5C",
"0. c #FF9652",
"q. c #FF9A51",
"w. c #F29E5B",
"e. c #FA9B58",
"r. c #DDA952",
"t. c #D7AD56",
"y. c #ECAB45",
"u. c #E4A44C",
"i. c #EBAB4E",
"p. c #EAA549",
"a. c #F4A544",
"s. c #FEA343",
"d. c #F2AA45",
"f. c #FDAB43",
"g. c #F5A549",
"h. c #FDA34B",
"j. c #F2A949",
"k. c #FDAA4A",
"l. c #E5B347",
"z. c #F9B243",
"x. c #EBAC53",
"c. c #E9A458",
"v. c #F2A453",
"b. c #FDA353",
"n. c #F4AC52",
"m. c #FDAB56",
"M. c #F2A55B",
"N. c #F3AF59",
"B. c #FDA95C",
"V. c #FFA15B",
"C. c #E7B758",
"Z. c #F9B459",
"A. c #D49474",
"S. c #F1966B",
"D. c #D6A966",
"F. c #D4A576",
"G. c #CCA479",
"H. c #E6A662",
"J. c #E4A767",
"K. c #FBA461",
"L. c #FFA861",
"P. c #F3AB63",
"I. c #E8B26A",
"U. c #E7B275",
"Y. c #F3B072",
"T. c #DDDC5B",
"R. c #FDD34B",
"E. c #FEDA49",
"W. c #FFCB56",
"Q. c #FED35D",
"!. c #FDDC5E",
"~. c #FFD854",
"^. c #D0EC5F",
"/. c #EBEA57",
"(. c #F0E553",
"). c #FFE55E",
"_. c #FFE942",
"`. c #DAD372",
"'. c #FFCC64",
"]. c #FEC66B",
"[. c #FECC6C",
"{. c #F9CB66",
"}. c #EEDE6E",
"|. c #EED862",
" X c #FFD465",
".X c #FDDC64",
"XX c #F6D46D",
"oX c #FED46D",
"OX c #F2DB6D",
"+X c #FEDC6C",
"@X c #F5DA64",
"#X c #FFCC73",
"$X c #FFCD7E",
"%X c #FCC879",
"&X c #EDDD73",
"*X c #EDDB7A",
"=X c #E7D978",
"-X c #F5D571",
";X c #FDD473",
":X c #F3DB74",
">X c #FDDB74",
",X c #F4D57C",
"<X c #FDD47C",
"1X c #F5DC7B",
"2X c #FDDA7A",
"3X c #ECCE64",
"4X c #C9ED6F",
"5X c #E7E36A",
"6X c #FEE562",
"7X c #F2E565",
"8X c #EBE473",
"9X c #E8E578",
"0X c #F5E174",
"qX c #FBE176",
"wX c #FEE37A",
"eX c #F4E57B",
"rX c #E7F372",
"tX c #DDDE8A",
"yX c #CFC797",
"uX c #D4C39B",
"iX c #D4D08C",
"pX c #FFCC8C",
"aX c #F8C585",
"sX c #EEDD82",
"dX c #E8D589",
"fX c #F6D182",
"gX c #FDD582",
"hX c #F4DC83",
"jX c #FBDB83",
"kX c #F4D58F",
"lX c #FBD58D",
"zX c #F8DB8B",
"xX c #EDDA9C",
"cX c #EAD793",
"vX c #F5D394",
"bX c #FDD392",
"nX c #F7DA97",
"mX c #F3CE9B",
"MX c #DAE387",
"NX c #E8E886",
"BX c #FBE386",
"VX c #EAE899",
"CX c #F5E496",
"ZX c #F0F28A",
"AX c #DBD3A3",
"SX c #E9DCA7",
"DX c #F8DAA7",
"FX c #F1C3A4",
"GX c #F3E0A3",
/* pixels */
"                                                                                                                                ",
"                                                                                                                                ",
"                                                                                                                                ",
"                                                                                                                                ",
"                                                                                                                                ",
"                                                                                                                                ",
"                            F.c.m.M.f $ $ t v.m.B.M.t $ & t v.B.L.M.f y % f M.L.L.M.f % % f M.L.I.t.Y U @ g J.P.u.D.            ",
"                            U.M.~  .6 F 8 6  .~ ~  .k 7 F k  .~ ~ %.6 8 7 k %.~ ~  .6 8 7 k %.~ | ..7 C H 6 ;.~ =.N.            ",
"                            J.h._ &.8 , C 5 ^ =._  .8 , , 8 ^ %.%. .7 V V 8  . . . .F , V 8  . .~ ~ k 8 7 z ( ~ _ B.            ",
"                            H.;.a.y.1 $ b r j.h.h.y.r b b r y.k.=.-.S c c 4 #.=.s.-.S c c 4 #.=.=.6.0 2 7 k 6._ ( M.            ",
"                            H.=.k.p.r e $ r i.a.a.j.1 e e 1 d.a.6.d.1 b O 3 d.6.6.d.1 b b 1 d.6.' g.2 e 3 2 -. .,.I.            ",
"                            H. .s.) 0 w 5 6 ;.=.=.f.= w w 5 ;.=.6.h.9 4 r 5 k.6.6.h.9 4 r 5 k.6.f.k.y e A 2 ,...} t.            ",
"                            J.:.%.%.k 0 6 k :. . .%.6 6 6 6 %. .' s.- 9 q - 6.' ' s.0 9 9 - 6.' ] a.y 4 2 5 :.X.X.r.            ",
"                            I.,.@.#.5 5 7 w #.o.z.#.8 5 5 8 #.,.h.-.u 1 1 u -.k.k.-.u 1 1 u -.k.;.d.i 2 1 w :.&.:.2.            ",
"                            aXW.+X XP 2 q * P 4 : 2 4 G G < < : 5 < , Z V , < 5 = < , Z V , < 5 5 7 2 S C 7 7 6 F h             ",
"                            pX X.XQ.4 : G : S V A , C : : 4 , V 7 C C v v Z < F F < V v v Z < F C V Z v v C < F C g             ",
"                            VXtXOX).> < C F F H Z Z D C D b O 9 6 7 < V v c n n v A V C , o V V z w g u k F v m v J             ",
"                            yXSXSXkXE E s & y d s * D : C o I 0 k 6 6 9 S V 3 , 4 < 7 5 7 C < C 6 I s h j C c x N a             ",
"                                                    % < H < O.*.%.=.*.-.-.-.-.a.*.=.s.*.;.o.6 < D @                             ",
"                                                    a < F > k.=.s.s.s.s.s.s.7.6.6.5.s.( k.-.9 5 n x                             ",
"                                                    a > 7 = k.' s.k.s.6.6.7.7.6.7.5.7.` k.a.= w m R                             ",
"                                                    L w 0 l ' _ a.g.g.s.h.h.7.7.5.6.h.6.k.a.q 2 D N                             ",
"                                            # n B b >.} ] h.s.~ g.g.a.g.h.6.6.6.h.7.6.6.a.d.y.y.$.l.@ M + s                     ",
"                                            Y v v , }  .*.m.)  .a.g.s.s.s.h.s.s.6.h.s.f.a.-.f.d.q.8.4 C < L                     ",
"                                            d 2 : 7 ^ %.s.g.k.~ ' h.6.k.s.*.s.s.k.;.*.=.=.=.=.' 9.0.8 F F C                     ",
"                                            E w w i =.' h.8.4.^ s.k.( s.) ;.-.-.o.-.-.;.=.' s.' 9.e.5 7 F V                     ",
"                                            E > 7 - 6.5.e.L.f.,.=.) z z = 0 7 5 < < > 7 = z _ =.0.w.e V F v                     ",
"                                            E , 7 = s.5.0.M./ Q -.o.i 0 5 7 < , , V V G > k ;.;.' p.A v Z N                     ",
"                                            % V < 7 =.6.V.M.+.X.l.{ q 2 > G : V , v o S + 7 -.-. .#.b v V N                     ",
"                                            & 4 : u ) ' m.M.p.} l.l.P q w w > > < S o G < G y.@.%.@.v Z C M                     ",
"            uXSXcXsX*XNXsXcXxXxXFXbXlXCXVXiXwX;XgX].f.^ :.i.$X$X X X+.+.-.s.) f.-.#.9 5 = 9 a.d.0.g.< C 7 d                     ",
"            VX&X7X/.(.(.(.7XOX7XpX XR.R./.7X>XgXbXgX,.Q ,.u.pXpX X;Xa.k.s.s.` =.=.s.k 0 k l a.s.9.7.7 7 k g                     ",
"            CX:X!.~.~.E.~..X+X:X6X<._.<.7X9X4X4XMX2X*.| ..l.5X^.<X[.j.4.s.6.` ' =.#.A c A 0 ' 6.] a.6 W < d                     ",
"            yXVXkXjX2X<XzXvXcXxXxXfXjXzXvX`.ZX9XzX$Xs.~ ~ p.wX5X;X{.C.p.k.k.6.s.f.y.2 : 1 i s.h.N.Z.7 F , E                     ",
"                                            D.u.8.q.[ 6.5.K.pX-X2XwX;X[.;XoX'. X X'.a.g.f.d. X'.#X].2 F , $                     ",
"                                            P.6.5.3.5.q.9.S.pX<X:X1X>X:X0X0X}.:X>X].h.7.8.i.>X&XBX,Xr C , Y                     ",
"                                            M.%.` ` 6.e.w.Y.aX].;X2X2X:X0X8X8X:X2X].b.7.8.x.&X9XNX,Xr C V E                     ",
"                                            u. .;.s.p.x.D.U.].W.%X#X#X;X-X-XOX;X;XZ.m.b.u.C.:X9XhX,X3 < C L                     ",
"                                            <X XW.'.OX&XBX,Xy.Q b.b.v.n.x.u.n.n.n.Z.].<X;X-X2X;X1X<X4 7 C S                     ",
"                                            CXXX>X8X5X}.eX>X-.Q 7.7.7.g.h.7.7.5.8.x.XX0X=X-X2X$X;X<Xu 7 C Z                     ",
"                                            CXsXNX=XrXT.wX#Xk._ 7.7.7.h.7.7.0.7.g.l.}.8XeXXX2X].+X%Xy 4 V n                     ",
"                                            yXVXtXVX`.7XqX%XL.e.j.j.a.h.h.h.h.h.i.C.:X:X3XoX'.;XQ.gXh E N x                     ",
"                                                    NXQ.oX$XpX%X+X+XoXoX[.[.oXoXoXXXoX>X XoXI e C g                             ",
"                                                    dXqXoX<X$X;X}.}.oX;X;XoX:X:X:X>XoX>X'.oXO b V E                             ",
"                                                    cXwX@X>X1X&X9X8X:X>X1X0X9X9X8X>X;X<X].oXO N Z Y                             ",
"                                                    nXOX@XOXBX8X&X&X:X:X*X*X*X*XBX2X;X>X>X>XN O C &                             ",
"                            G.F.A.J.<XzXcXdXCXGXmXDX:X6X+X,X,X=X<X<X2XhX1XhXfX<X-X<X2X-X:X>X3X>XE.BXAXAXNX5X>.8.w.A.            ",
"                            U.I.L.*.R.R.Q.6X6X|.2X3X).E..XgXnXvX$X$XgXhXhXjXgXgXgXgX1X=XeX:X>X+XE.2XDXtX/.1.! ! %.L.            ",
"                            v.| u.u.<XgX<XjX;X;X:X2X2X2X<X<X2X;X;X2X<XgX2X<X<X;X;X<X<X<X2X<X2X;XoX<XBX=X0X X} Q ..c.            ",
"                            v.| N.Z.].2X-X#X>X;X;X2X-X*X:X-X2X;X>X>XoX:X:X-X>X;X;X2X-X:X1X-X>XoX].gX,X=X>X'.k.&.&.c.            ",
"                            v.| ' / q A o 4 y.d.y.{ K c c K O.d.d.O.K c b S { d.d.O.K c c K { g.y.x.d $ J u / ~ %.H.            ",
"                            c.~ 6._ 8 F , 7 ;.=.' $.< , V 7 _ ' ' $.7 < V 7 %.' ' %.8 , , 7 %.' *.d.u 3 S w %... .H.            ",
"                            c.%.0.( k > > k ) 6.6.s.6 < < 6 s.5.5.s.6 < < 6 s.5.6.s.6 < < 6 s.5. .$.w : < 0 ) &.%.J.            ",
"                            I.k.K.4.w < C P 4.w.M.N.: C F > B.e.w.N.2 C C > N.M.w.N.2 C C 2 N.M.%.o.i 4 2 i ] =.k.U.            ",
"                            aX].bX<XJ v v J ,XnXkX<XO o v 3 gXlXlX<Xb v v O jXlXlX<Xb v o O jXkXQ.'.i 2 2 u #X[.'.aX            ",
"                            vXjX*X>Xo V C o 0XeXsX0XV C C , >XhXsX0Xo C C v :XsXsX0Xo C V V 0X1X~.!., V V : ;XQ.+XfX            ",
"                            DXbX1XqX< 8 7 < qX:X1X+X< 8 6 7 +X2X1X+X< 7 7 < +X1X1X+X< 7 7 < >X1X~.6Xv n c $ >X.X@XBX            ",
"                            uXDXvXfXt < 2 r fXvXvXfXt 2 > t fXbXvXfXt < < t fXvXvXfXt < < t fXvXhXdXT U U T cXkXhXiX            ",
"                                                                                                                                ",
"                                                                                                                                ",
"                                                                                                                                ",
"                                                                                                                                ",
"                                                                                                                                ",
"                                                                                                                                "
};
