/* XPM */
static char *_784426339fa448cfce08202c0bda551lLJol54bt9yyf8ie[] = {
/* columns rows colors chars-per-pixel */
"64 64 250 2 ",
"   c None",
".  c #7F7F00",
"X  c #7F7F26",
"o  c #9D7D01",
"O  c #9D7D0D",
"+  c #9A7608",
"@  c #8D7D1B",
"#  c #817C1B",
"$  c #9B7A15",
"%  c #9C751E",
"&  c #977818",
"*  c #957006",
"=  c #B66D01",
"-  c #B86F09",
";  c #BB6E01",
":  c #A37602",
">  c #AC7503",
",  c #A57E00",
"<  c #AC7C02",
"1  c #A6760A",
"2  c #AB760A",
"3  c #A57B0B",
"4  c #AC7D0B",
"5  c #B37302",
"6  c #BC7301",
"7  c #B47B01",
"8  c #BA7C01",
"9  c #B3750A",
"0  c #BC750A",
"q  c #B47B0C",
"w  c #B97B0C",
"e  c #A37D11",
"r  c #A97B11",
"t  c #AB7C1A",
"y  c #AA7518",
"u  c #B57B12",
"i  c #B97812",
"p  c #AE6F01",
"a  c #9A7737",
"s  c #90752C",
"d  c #A57B23",
"f  c #AD7923",
"g  c #A87A2A",
"h  c #A67636",
"j  c #BA7E21",
"k  c #C57607",
"l  c #C37312",
"z  c #CE7109",
"x  c #7D8626",
"c  c #968405",
"v  c #9B8202",
"b  c #9A810D",
"n  c #978807",
"m  c #9B9300",
"M  c #9C811E",
"N  c #988415",
"B  c #969217",
"V  c #A48402",
"C  c #AB8301",
"Z  c #A48A01",
"A  c #A7840C",
"S  c #AA820A",
"D  c #AE8A00",
"F  c #B48200",
"G  c #B2830C",
"H  c #B78600",
"J  c #A78315",
"K  c #AB8611",
"L  c #A6851A",
"P  c #B48314",
"I  c #B5851B",
"U  c #8B822A",
"Y  c #9B8224",
"T  c #938438",
"R  c #859128",
"E  c #A68428",
"W  c #C08400",
"Q  c #FCA71E",
"!  c #F7B20A",
"~  c #FF9A2B",
"^  c #FB9D27",
"/  c #ED9A35",
"(  c #FE9634",
")  c #F59C35",
"_  c #FE9D34",
"`  c #FF943B",
"'  c #FE9C3C",
"]  c #F29E3C",
"[  c #FF8F3C",
"{  c #DEA93B",
"}  c #EFA92B",
"|  c #FFA324",
" . c #FCA22C",
".. c #FEAA2C",
"X. c #F5A728",
"o. c #EBA335",
"O. c #E1A53B",
"+. c #ECA53C",
"@. c #EDAA3C",
"#. c #E9AA3A",
"$. c #F5A434",
"%. c #FCA333",
"&. c #FEAB33",
"*. c #F5A33C",
"=. c #FDA33C",
"-. c #F3AA3E",
";. c #FDAA3D",
":. c #F5A834",
">. c #E6B53C",
",. c #FCB13B",
"<. c #F3D33A",
"1. c #FAE829",
"2. c #DA9F58",
"3. c #FF8F44",
"4. c #EC9C45",
"5. c #FF9645",
"6. c #FE9C44",
"7. c #FE9C4A",
"8. c #F89A4B",
"9. c #FE8C5C",
"0. c #FF9652",
"q. c #FF9A51",
"w. c #F29E5B",
"e. c #FA9B58",
"r. c #DDA952",
"t. c #D7AD56",
"y. c #ECAB45",
"u. c #E4A44C",
"i. c #EBAB4E",
"p. c #EAA549",
"a. c #F4A544",
"s. c #FEA343",
"d. c #F2AA45",
"f. c #FDAB43",
"g. c #F5A549",
"h. c #FDA34B",
"j. c #F2A949",
"k. c #FDAA4A",
"l. c #E5B347",
"z. c #F9B243",
"x. c #EBAC53",
"c. c #E9A458",
"v. c #F2A453",
"b. c #FDA353",
"n. c #F4AC52",
"m. c #FDAB56",
"M. c #F2A55B",
"N. c #F3AF59",
"B. c #FDA95C",
"V. c #FFA15B",
"C. c #E7B758",
"Z. c #F9B459",
"A. c #F1966B",
"S. c #D6A966",
"D. c #D4A576",
"F. c #CCA479",
"G. c #E6A662",
"H. c #E4A767",
"J. c #FBA461",
"K. c #FFA861",
"L. c #F3AB63",
"P. c #E8B26A",
"I. c #E7B275",
"U. c #F3B072",
"Y. c #D49474",
"T. c #DDDC5B",
"R. c #FDD34B",
"E. c #FEDA49",
"W. c #FFCB56",
"Q. c #FED35D",
"!. c #FDDC5E",
"~. c #FFD854",
"^. c #D0EC5F",
"/. c #EBEA57",
"(. c #F0E553",
"). c #FFE55E",
"_. c #FFE942",
"`. c #DAD372",
"'. c #FFCC64",
"]. c #FEC66B",
"[. c #FECC6C",
"{. c #F9CB66",
"}. c #EEDE6E",
"|. c #EED862",
" X c #FFD465",
".X c #FDDC64",
"XX c #F6D46D",
"oX c #FED46D",
"OX c #F2DB6D",
"+X c #FEDC6C",
"@X c #F5DA64",
"#X c #FFCC73",
"$X c #FFCD7E",
"%X c #FCC879",
"&X c #EDDD73",
"*X c #EDDB7A",
"=X c #E7D978",
"-X c #F5D571",
";X c #FDD473",
":X c #F3DB74",
">X c #FDDB74",
",X c #F4D57C",
"<X c #FDD47C",
"1X c #F5DC7B",
"2X c #FDDA7A",
"3X c #ECCE64",
"4X c #C9ED6F",
"5X c #E7E36A",
"6X c #FEE562",
"7X c #F2E565",
"8X c #EBE473",
"9X c #E8E578",
"0X c #F5E174",
"qX c #FBE176",
"wX c #FEE37A",
"eX c #F4E57B",
"rX c #E7F372",
"tX c #DDDE8A",
"yX c #CFC797",
"uX c #D4C39B",
"iX c #D4D08C",
"pX c #FFCC8C",
"aX c #F8C585",
"sX c #EEDD82",
"dX c #E8D589",
"fX c #F6D182",
"gX c #FDD582",
"hX c #F4DC83",
"jX c #FBDB83",
"kX c #F4D58F",
"lX c #FBD58D",
"zX c #F8DB8B",
"xX c #EDDA9C",
"cX c #EAD793",
"vX c #F6D394",
"bX c #F4D593",
"nX c #FDD392",
"mX c #F7DA97",
"MX c #F3CE9B",
"NX c #DAE387",
"BX c #E8E886",
"VX c #FBE386",
"CX c #EAE899",
"ZX c #F5E496",
"AX c #F0F28A",
"SX c #DBD3A3",
"DX c #E9DCA7",
"FX c #F8DAA7",
"GX c #F1C3A4",
"HX c #F3E0A3",
/* pixels */
"                                                                                                                                ",
"                                                                                                                                ",
"                                                                                                                                ",
"                                                                                                                                ",
"                                                                                                                                ",
"                                                                                                                                ",
"            iXhXzXcXT s U T dXsXvXfXt < 2 L fXvXvXfXt < 4 t fXvXnXfXt > < t fXvXbXfXr 4 4 t fXvXFXuX                            ",
"            jX!..X>XO n n v .X!.1X+X< 7 8 < .X1X2X+X< 7 7 < .X1X2XoX5 8 8 < qX1X1X+X< 7 7 < +X2XpXFX                            ",
"            fX+X X;X1 V V : !.~.sX>Xv V V , 0XsXhX0Xv V V v 0XsXhX>X, C V , 0XsXBXqXo C V o qX*XgXvX                            ",
"            aX'.'.[.u 1 1 P '.Q.kXgXO v v O gXkXkX<XO o , O gXlXlXgX3 , v O <XlXnX,XK v o r <XnX].aX                            ",
"            I.k.;.] i 2 4 i ) %.M.N.> C C > N.w.M.N.> C C > N.w.w.B.> C C > N.M.M.p.P V < q 4.J.f.P.                            ",
"            G.$.&.) 0 > : w o. .6.s.6 < 7 6 s.6.5.s.6 C < 6 =.6.5.s.6 < < 5 s.6.5.) k > > k ` 7.%.G.                            ",
"            G. .&.%.w S 3 u d.;.' $.8 < , 8 $.=.' $.8 , , 8 $.' ' %.8 , , 7 $.=.' ;.7 < F 6 _ 6.^ c.                            ",
"            G.%.^ / u J $ d x.d.j.O.A n c K O.d.d.O.K c b K O.j.a.O.K c c K { d.y.y.4 o A q / ' | v.                            ",
"            M.%...k.'.>X=X,XjX#X;X>X-X:X,XXX>X;X;X>X-X:X:X-X>X;X;X>X-X:X:XXX>X;XoX2XXXXX2X].Z.Z.| v.                            ",
"            c...Q }  X0X=XzX;X;X;X2X<XgX2X<X2X;X;X<X<XgX<X<X2X#X;X2X<XjXjX,X1X;X>X-XjX$XjXgXu.u.| v.                            ",
"            J.&.! ! 1./.NXHX;XE.;X;X0XeX=X1X2XgXgXgXgXhXhX<XgXgXmXMXfX.XR.6XXX2X|.6X!.Q.~.R.$.K.P.P.                            ",
"            Y.w.4.l.|.BXSXSXVXE.qX3X>X:X:X2X<X-X<XgXhXhXhX2X<X<X=X=X1X@X6X>XmXSXHXZXdXbXzXgXH.Y.D.F.                            ",
"                            & Z O N qX;X;X;X<XVX*X*X*X:X*X1X:X&X0XVX:X!.OXzX                                                    ",
"                            Y Z N + >X'.<X;X2X&X9X9X0X:X-X0X8X8X8X1X>XXXwXxX                                                    ",
"                            E V $ O oX{.;XoX>X0X}.:X+X;X;X+X}.5X;XgX%XoX0XdX                                                    ",
"                            E C 1 P oXoX>XoXXX+X;X#X#X[.[.oXoX+X%XpXgXoX3XsX                                                    ",
"                    X N E h gXW.;X'.oXOX:X:XC.i.b.h.h.h.h.g.j.j.b.J.%X>X7X5XCXiXCXiX                                            ",
"                    n V > f #X;X].2XOX0X8XOXl.a.7.5.7.7.7.s.h.7._ h.#XwXT.rX9XBXdXCX                                            ",
"                    S D 7 u <X;X#X2X-X&XeXXXx.8.7.7.7.8.h.8.7.q.Q -.#XeX5X5X:X>XOXzX                                            ",
"                    A H 7 r <X:X,X2X-X;X<X].Z.n.v.j.i.x.n.n.b.b.Q z.-XhX=XOX'.W. X<X                                            ",
"                    L C < 4 ,X*X9X:XC.4.m.m.Z.#X;X-X-XXX;X#X#X#X~.[.I.S.r.g.s.;. .u.                                            ",
"                    E V V J ,XVX=X&XC.8.7.b.#X>X0X8X8X8X:X<X<X;X[.aXU.A.V.7.` ( =.M.                                            ",
"                    M , V r ,XVX&X>Xi.7.7.h.[.>X:X}.0XeX-X-X2X&X$XpXA.9.7.3.3.5.' L.                                            ",
"                    M , C 4 ].#X'.'.y.j.a.a.'.'. X'.oX;XoX>XwX2X-XgXJ.5.6.[ 0.8.c.S.                                            ",
"                    d , H 5 Z.Z.k.s.i 2 : 1 y.f.s.s.h.k.p.C.{.oX8XqXp._ ~ =.gXlX=XAX`.bXzXVXfXMXDXcXkXzXjX<XhXkXxXyX            ",
"                    d < W ; a.] 6.' 0 A v A #.=.' ` 6.6.4.j.[.2X^.5Xl...| -.<XNX4X4XrX7X<._.<.).OX+X.X~.E.E.~.!.}.ZX            ",
"                    f 8 7 7 7.9.a.a.l l 0 k ;.;.s.( s.s.h.j.oXoXpXpXu.,.Q ,.$XnXgX;X7X7XE.R.[.pXOX7X7X(.(.(.(.7X5XCX            ",
"                    g F C < g.0.f.d.6 > 5 9 o.-.f.$.s.*.+.O. X'.$XgXu.:.^ ,.#X<X<XwX`.CXZXlXnXGXxXxXcXdXsXsXsXcXDXyX            ",
"                    % C V V #.' +.y.q 2 G o S 4 > > w w w P l.l.) y.c.m.' ) u : A &                                             ",
"                    N Z v n #. .-.-.> : S o v o , < G > q 9 >.l.Q #.M.V.6.s.8 C C Y                                             ",
"                    N Z v A p._ ;.;.0 > G V V V , < 4 > w k #.d.| o.M.0.3.s.; < < E                                             ",
"                    v F V 4 v.0.=._ z = 7 5 < 7 7 5 6 ; l z ) ' ,.g.J.e.5.s.- 5 > E                                             ",
"                    Z F 7 9 e.9.' s.=.;.f.-.-.#.d.-.=.) s.( h.s.^ a.8.7.' =.i w 9 g                                             ",
"                    < H 7 7 0.9.=.' =.=.] $.=.f.=.=.s.6.k.' h.'  .k.g.s.%. .5 : 7 d                                             ",
"                    L < F 4 a.0.a.f.-.a.s.a.s.6.s.6.s.6.a.a.a.h. .) m.=. .} o n Z N                                             ",
"                    s $ M @ l.) y.y.d.a.6.s.7.h.6.h.h.h.a.h.a.j.~ =.k.] } >.n B N X                                             ",
"                            N D 2 u +.k.6.7.6.5.7.7.7.h.h.g.g.j._ ' i - w t                                                     ",
"                            R m w 5 a.h.` 7.5.7.5.7.6.h.6.s.s.s.( k.- 6 7 a                                                     ",
"                            x n 9 6 -.k.( s.5.7.6.s.s.s.s.=.s.' ' k.> F > a                                                     ",
"                            N D 7 7 o.;.*.k.=.$.-.-.a.@.*.*.;.=.a.#.< D < %                                                     ",
"            a N c c C j h s I 6 V < < 7 > < q 4 , 3 S 4 7 7 6 k 9 P o C < C * s d y % s E E kXDXDXyX                            ",
"            L v m v 8 6 y h 0 z V Z o , C , V v n n c v , < 7 6 9 O O C V D Z Z F 8 C C , > !.OXtXCX                            ",
"            g C F < C v v Z V F 7 V Z v v Z < F 7 < Z v v Z V F C , C : : C V A , G o P : C !. X XpX                            ",
"            h 8 7 6 7 S S 4 7 > = < < V S , < = > < , C A , < = : < 4 G G < 4 : 3 q * q 2 I  X.XW.%X                            ",
"            r.} ..:.w 2 1 i a.;.k.-.u 1 3 q a.k.k.d.u 1 > u -.k.,.#.8 5 5 8 #.,.o.@.w 8 5 5 @.o.z.P.                            ",
"            r.X.X.:.5 2 r y d.%.5.s.6 9 q - =.' ' 6.9 9 9 - 6.'  .%.6 6 6 ; %._ $.&.6 = 0 k $.;.%.H.                            ",
"            t.} X.;.> A r y k.s.6.k.5 r r 9 s.6.6.s.9 4 r 9 k.6.=.;.6 q q 6 f.=.=.;.6 5 q 0 ) s.$.c.                            ",
"            P.&. .s.2 3 e y g.' s.d.1 b b 3 d.6.s.d.1 b b 1 d.s.a.y.1 3 e 1 d.a.a.g.r $ e r p.h.&.G.                            ",
"            G.( =.=.k > < w s.' s.-.S c c 4 @.;.;.@.S c n 4 @.s.h.y.t b b r y.h.h.y.r $ b r d.a.s.G.                            ",
"            B._ ~ ( z 7 8 k ~ ~ ~ X.8 < V 8  .%.~  .8 , , 8 X.~ %. .8 , < 8 $._ %.^ 7 V : 8 &._ k.H.                            ",
"            B.&.~ ;.8 F C 7 &.^ ~ %.6 q F 6 %.~ ~ %.6 7 8 6 %.~ ^  .6 F F k  .^ ~  .k 7 F 6  .~ M.I.                            ",
"            S.i.L.H.g @ @ Y S.C.K.M.f y y f M.K.K.M.f y % f M.K.B.v.f $ $ f v.B.B.v.t $ $ t v.B.c.D.                            ",
"                                                                                                                                ",
"                                                                                                                                ",
"                                                                                                                                ",
"                                                                                                                                ",
"                                                                                                                                ",
"                                                                                                                                "
};
