/* XPM */
static char *_3fc3b4a105044b7b0dd1f97ae2d1471OPcNVy0Uzc9jmvYX[] = {
/* columns rows colors chars-per-pixel */
"64 64 249 2 ",
"   c None",
".  c #7F7F00",
"X  c #7F7F26",
"o  c #9D7D01",
"O  c #9D7D0D",
"+  c #9A7608",
"@  c #8D7D1B",
"#  c #817C1B",
"$  c #9B7A15",
"%  c #9C751E",
"&  c #977818",
"*  c #957006",
"=  c #B66D01",
"-  c #B86F09",
";  c #BB6E01",
":  c #A37602",
">  c #AC7503",
",  c #A57E00",
"<  c #AC7C02",
"1  c #A6760A",
"2  c #AB760A",
"3  c #A57B0B",
"4  c #AC7D0B",
"5  c #B37302",
"6  c #BC7301",
"7  c #B47B01",
"8  c #BA7C01",
"9  c #B3750A",
"0  c #BC750A",
"q  c #B47B0C",
"w  c #B97B0C",
"e  c #A37D11",
"r  c #A97B11",
"t  c #AB7C1A",
"y  c #AA7518",
"u  c #B57B12",
"i  c #B97812",
"p  c #AE6F01",
"a  c #9A7737",
"s  c #90752C",
"d  c #A57B23",
"f  c #AD7923",
"g  c #A87A2A",
"h  c #A67636",
"j  c #BA7E21",
"k  c #C57607",
"l  c #C37312",
"z  c #CE7109",
"x  c #7D8626",
"c  c #968405",
"v  c #9B8202",
"b  c #9A810D",
"n  c #978807",
"m  c #9B9300",
"M  c #9C811E",
"N  c #988415",
"B  c #969217",
"V  c #A48402",
"C  c #AB8301",
"Z  c #A48A01",
"A  c #A7840C",
"S  c #AA820A",
"D  c #AE8A00",
"F  c #B48200",
"G  c #B2830C",
"H  c #B78600",
"J  c #A78315",
"K  c #AB8611",
"L  c #A6851A",
"P  c #B48314",
"I  c #B5851B",
"U  c #8B822A",
"Y  c #9B8224",
"T  c #938438",
"R  c #859128",
"E  c #A68428",
"W  c #C08400",
"Q  c #FCA71E",
"!  c #F7B20A",
"~  c #FF9A2B",
"^  c #FB9D27",
"/  c #ED9A35",
"(  c #FE9634",
")  c #F59C35",
"_  c #FE9D34",
"`  c #FF943B",
"'  c #FE9C3C",
"]  c #F29E3C",
"[  c #FF8F3C",
"{  c #DEA93B",
"}  c #EFA92B",
"|  c #FFA324",
" . c #FCA22C",
".. c #FEAA2C",
"X. c #F5A728",
"o. c #EBA335",
"O. c #E1A53B",
"+. c #ECA53C",
"@. c #EDAA3C",
"#. c #E9AA3A",
"$. c #F5A434",
"%. c #FCA333",
"&. c #FEAB33",
"*. c #F5A33C",
"=. c #FDA33C",
"-. c #F3AA3E",
";. c #FDAA3D",
":. c #F5A834",
">. c #E6B53C",
",. c #FCB13B",
"<. c #F3D33A",
"1. c #FAE829",
"2. c #DA9F58",
"3. c #FF8F44",
"4. c #EC9C45",
"5. c #FF9645",
"6. c #FE9C44",
"7. c #FE9C4A",
"8. c #F89A4B",
"9. c #FE8C5C",
"0. c #FF9652",
"q. c #FF9A51",
"w. c #F29E5B",
"e. c #FA9B58",
"r. c #DDA952",
"t. c #D7AD56",
"y. c #ECAB45",
"u. c #E4A44C",
"i. c #EBAB4E",
"p. c #EAA549",
"a. c #F4A544",
"s. c #FEA343",
"d. c #F2AA45",
"f. c #FDAB43",
"g. c #F5A549",
"h. c #FDA34B",
"j. c #F2A949",
"k. c #FDAA4A",
"l. c #E5B347",
"z. c #F9B243",
"x. c #EBAC53",
"c. c #E9A458",
"v. c #F2A453",
"b. c #FDA353",
"n. c #F4AC52",
"m. c #FDAB56",
"M. c #F2A55B",
"N. c #F3AF59",
"B. c #FDA95C",
"V. c #FFA15B",
"C. c #E7B758",
"Z. c #F9B459",
"A. c #D49474",
"S. c #F1966B",
"D. c #D6A966",
"F. c #D4A576",
"G. c #CCA479",
"H. c #E6A662",
"J. c #E4A767",
"K. c #FBA461",
"L. c #FFA861",
"P. c #F3AB63",
"I. c #E8B26A",
"U. c #E7B275",
"Y. c #F3B072",
"T. c #DDDC5B",
"R. c #FDD34B",
"E. c #FEDA49",
"W. c #FFCB56",
"Q. c #FED35D",
"!. c #FDDC5E",
"~. c #FFD854",
"^. c #D0EC5F",
"/. c #EBEA57",
"(. c #F0E553",
"). c #FFE55E",
"_. c #FFE942",
"`. c #DAD372",
"'. c #FFCC64",
"]. c #FEC66B",
"[. c #FECC6C",
"{. c #F9CB66",
"}. c #EEDE6E",
"|. c #EED862",
" X c #FFD465",
".X c #FDDC64",
"XX c #F6D46D",
"oX c #FED46D",
"OX c #F2DB6D",
"+X c #FEDC6C",
"@X c #F5DA64",
"#X c #FFCC73",
"$X c #FFCD7E",
"%X c #FCC879",
"&X c #EDDD73",
"*X c #EDDB7A",
"=X c #E7D978",
"-X c #F5D571",
";X c #FDD473",
":X c #F3DB74",
">X c #FDDB74",
",X c #F4D57C",
"<X c #FDD47C",
"1X c #F5DC7B",
"2X c #FDDA7A",
"3X c #ECCE64",
"4X c #C9ED6F",
"5X c #E7E36A",
"6X c #FEE562",
"7X c #F2E565",
"8X c #EBE473",
"9X c #E8E578",
"0X c #F5E174",
"qX c #FBE176",
"wX c #FEE37A",
"eX c #F4E57B",
"rX c #E7F372",
"tX c #DDDE8A",
"yX c #CFC797",
"uX c #D4C39B",
"iX c #D4D08C",
"pX c #FFCC8C",
"aX c #F8C585",
"sX c #EEDD82",
"dX c #E8D589",
"fX c #F6D182",
"gX c #FDD582",
"hX c #F4DC83",
"jX c #FBDB83",
"kX c #F4D58F",
"lX c #FBD58D",
"zX c #F8DB8B",
"xX c #EDDA9C",
"cX c #EAD793",
"vX c #F5D394",
"bX c #FDD392",
"nX c #F7DA97",
"mX c #F3CE9B",
"MX c #DAE387",
"NX c #E8E886",
"BX c #FBE386",
"VX c #EAE899",
"CX c #F5E496",
"ZX c #F0F28A",
"AX c #DBD3A3",
"SX c #E9DCA7",
"DX c #F8DAA7",
"FX c #F1C3A4",
"GX c #F3E0A3",
/* pixels */
"                                                                                                                                ",
"                                                                                                                                ",
"                                                                                                                                ",
"                                                                                                                                ",
"                                                                                                                                ",
"                                                                                                                                ",
"                                                            yXCXVXuX                                                            ",
"                                                            xXOX8XSX                                                            ",
"                                                            kX6X7XcX                                                            ",
"                                                            hX~.(.sX                                                            ",
"                                                            <XE.(.*X                                                            ",
"                                                            jXE.(.NX                                                            ",
"                                                            zX~.(.sX                                                            ",
"                                                            kX.X7XcX                                                            ",
"            uXDXvXaXI.H.c.v.v.v.I.G.                        cX+XOXxX                        yXVXpX%XI.J.H.H.J.J.U.F.            ",
"            DXpXgX].f. .^ | | | I.F.                        xX:X7XxX                        SXMX XW.,.:. .=.=.h.b.H.            ",
"            vX2X*XbXK.q.6.' N.u.L.A.                        mX6XpXFX                        SXOX.X+X+.=.s.k.8._ ~ m.            ",
"            fX+XqX<X4.` _ / Z.u.$.J.                        fX<.[.bX                        vX!.Q. X@.$.) p.y.&. .v.            ",
"            t < o e q k 6 q [.$XR.gX                        BX_.R.lX                        E > S I 5 k 0 r 1 8 k t             ",
"            < 8 C v < 5 F A 2XgX~.BX                        lX<.E.CX                        Y < : 1 5 6 w b $ , F $             ",
"            1 8 D V < < < + -X$XQ.vX                        kX6X/.VX                        s D G q w 6 > O N C 8 &             ",
"            t < o J P 6 8 4 XXjX).cX                        `.rX7XdX                        & F + : w 6 6 y r 7 6 t             ",
"            fX6X0X,Xp.) ;.y.>X;X).VX        iXGXnX2Xu.M.P.D.ZX4X>XjX& Y E E g d Y #         y H 4 G #.%.=.j.p.~ ..v.            ",
"            vX1XsXnXw.6.=.y.;X>X|.DX        VX=XXX X| =.6.u.NX4XgX;XA , < > q < V n         d H , < +.%.=.a.k.%.~ B.            ",
"            vX1XsXkXM.6.' y.>X-X2XmX        tXNX:XW.=.( 5.8.zXMXlXgX: < 7 5 u : v B         s Z A : -._ =.g.h.%.~ B.            ",
"            fX+X0X<XN.s.$.{ >X2X3XCX        VX=X0X Xs.5.3.q.$X,XgX].u 8 5 - 0 7 o c         * Z V C #.%.f.p.y. . .v.            ",
"            t < V O > 5 7 K &X<X6X:XnXxXcXNX5X5X5XOXj.5.5.[ s.:.;.;.$.=.s.=.=.) } >.t a a % C D S < 8 6 6 1 r 8 k t             ",
"            > 8 V , C C V c :X<XR.6XOXwX2X|.7XT.|.&Xr.V.q.6.~ | Q ^ ' 6.5.5.' %...} w > 4 < , < < G 5 6 q e b , 8 &             ",
"            > 8 < , 7 < V c :XgX.X+X@X.XoXoX2XwXeXNXD.S.9.6._ ..,.$.m.V.0.e.7.s.=.*.0 5 8 F C D < G 5 6 q 3 b < F &             ",
"            t 7 , O > 6 8 K -X<XgX,X:X-X<XaX%X#X;X%XY.Y.S.K.p.l.u.x.c.M.w.L.8.g.m.b.0 = > , o O < < 8 6 ; 1 e 8 k f             ",
"            fX>X>X<XB.s._ O.>X2XnX=XBX:X<XpXV.k.@.l.'.aXpXgX2X5XlX$Xy.@./ k.4.k.) s.' k.f.#.I O V , @.$.;.j.y.^  .v.            ",
"            bX<XhXlXw.6.' a.;X;XvX=XeX}.<X%Xb._ | Q ~.[.$X-X5X^.pX$X} Q X.&.^ %.| ~ ( ' ' a.9 9 V : ,.~ =.a.k.%.~ B.            ",
"            vX2XhXkXw.5.' d.;X;XgX<X&X8X5X+Xj.6.7.b.#X-X:XwXoX<X[.'.l.l.z.=.s.' a.j.g.s.s.=.k 6 7 > k.( 6.6.=.~ ~ L.            ",
"            fX+X0XgXN.s.%.O.>X2XgX<X:X8X&XoXj.h.7.b.#X<X2X2X{.;X;X'.l.O.o.) k.k.s.a.g.s.=.=.6 7 < < d.6.k.d.-.X.%.M.            ",
"            t < v O > 5 8 K -X<XgX,X:X:X+XoXj.7.7.M.#X2X:X;XC.j.j.+.P 4 l z ` ' h.j.g.s.6.*.8 < Z V q - 9 1 S 8 6 f             ",
"            < 7 C v D < , c :XgXhX<X*X>X;X[.h.7.h.n.;X:X-XoXp.4.k.+.u 5 8 l =.k.s.a.h.s.s.*.7 V v A 1 9 4 b c , 8 %             ",
"            < 7 C v C < , c :X<XhX1X*X>X;X[.k.7.8.i.-X&X0XoXj.6.s.*.q < 5 ; ) ' s.h.7.7.s.-.S v v Z 1 9 4 b c , 8 d             ",
"            t < o O > 6 7 K ;X<XjXhX=X0X;X[.h.5.7.i.-X8X0XoXk.6.s.s.w q q 0 *.s.s.h.h.6.s.@.3 c Z < u 0 9 3 4 H 6 f             ",
"            ,XqX>XjXN.s.%.{ >X2XgXjX*X9XOX;X7.q.7.n.-X8X}.'.6.` ( *.> , < 5 -.=.s.7.7.6.6.d.C n < < a.6.k.a.@. ...M.            ",
"            vX1X*XkXw.6.' d.;X;XgXgX*X9X&X;Xh.7.7.j.;X8X0X'.k.' s.s.> , C < -.s.6.7.7.7.s.*.3 c F 5 k.( 6.6.=. .~ L.            ",
"            vX1XhXlXw.6.' d.;X;XgX%XBX8X:XoXy.g.8.n.[.2X>X Xk.=.=.-.< v V 7 +.s.s.7.7.7.6.*.4 c 8 5 k.' 6.s.s.~ ~ K.            ",
"            fX+X0X,XN.s._ { >X<X<X,X2X>X>XXXC.l.x.Z.Z.#X[.'.y.#.=.#.S V V < @.;.k.6.5.5.' =.q V , < a.6.k.d.-.X.%.M.            ",
"            t < V O 1 6 8 K -X2X2X2X;X;XoXoX:XOX{.[.B.h.h.a.1 V k q , o C > d.) s.6.7.7.6.k.< , Z , q - 5 1 4 8 k f             ",
"            < 8 V o C 7 , c :XgX=X:X;X<X>X>X0X8XeX2Xv.e.7.s.1 c 0 5 P V G 7 f.=.f.6.7.( ( =.> C v S 1 q r b c V 7 %             ",
"            < 7 C o D < < c :X2XeX:X>X{.].oX|.0X*X;X4.8.h.j.2 A 0 p < + > = =.=.a.a.k.k.s.;.7 , v Z 2 q 4 O c , 7 y             ",
"            t < v O > 5 8 K -X<X8X>X>X>XoXoXoXXX-X-XC.x.j.p.0 0 l 9 q q k z =.=.*.d.a.a.-.o.< , Z , u - 9 1 S 8 6 f             ",
"            fX+X:X2XN.s.$.O.>X<X>X3XL + O I [.>X2X2X:X&X:X[.s.' s.a.y.@.;._ 6.' k.y.q 5 5 q < Z < > a.s.k.d.@. .%.M.            ",
"            vX1XsXlXw.6.' d.>X;X;X>Xb N $ 1 ;X[.#X;X9X9X}.'.k.6.a.f.@.-.;.=.' =.d.y.1 q 8 5 C v F p k.' 6.s.=.%.~ L.            ",
"            sX!.~.Q.%.| ;.j.#X;XR.E.D V v C W.>X;X,X1XBXjX#Xn.*.9.q._ %._ 0.9.9.0.} F m m D ; z F > ;.=.s.=.' ^ | I.            ",
"            dX.X!.'.) o.y.x.jX%X2XBX& Y E E gX%X<X<XfX*X,X[.Z.d.7.g.@.#.p.e.e.0.8.l.N R x @ t i Z 5 @.a.k.g.s.~ &.t.            ",
"            T O : u i w u d ,XBXGXAX        h y u 4 e J r 4 5 ; 5 < V n b 4 q 7 4 @         s g V < u y y y l k 7 U             ",
"            U n V 4 q , 3 $ =X=XMXAX        E < 7 8 < C C F H H 8 C V v v V 7 8 D M         a u v G 2 r J 3 < 5 F N             ",
"            U n V 2 4 : S J :XqX/.NX        M V C C C , , o , < 6 F C Z Z D H H < $         j k v S > 4 A 3 < 7 D @             ",
"            T O + i 0 0 w u '.oX1.|.        x n Z A L E M M d d g f d N N v , < L s         < H C 7 w 5 > 2 k z 6 g             ",
"            cX>X;X#X] $.%.) z.} ! >.                                                        c v < 6 :.:.;.s.s.( =.J.            ",
"            kX.XQ.[.=.%...~ ..| ! 4.                                                        x m F 5 &.X.X..._ ~ ~ P.            ",
"            hX@X+X'.k.%. .%.&...&.w.                                                        N v C 8 :.} } ;.( ~ &.u.            ",
"            iXBXfXaXU.J.H.J.c.c.L.A.                                                        a L g h r.r.t.I.M.L.P.D.            ",
"                                                                                                                                ",
"                                                                                                                                ",
"                                                                                                                                ",
"                                                                                                                                ",
"                                                                                                                                ",
"                                                                                                                                "
};
